<?xml version="1.0" standalone="no"?>
<!DOCTYPE svg PUBLIC "-//W3C//DTD SVG 20010904//EN"
 "http://www.w3.org/TR/2001/REC-SVG-20010904/DTD/svg10.dtd">
<svg version="1.0" xmlns="http://www.w3.org/2000/svg"
 width="420.000000pt" height="230.000000pt" viewBox="0 0 420.000000 230.000000"
 preserveAspectRatio="xMidYMid meet">

<g transform="translate(0.000000,230.000000) scale(0.100000,-0.100000)"
fill="#000000" stroke="none">
<path d="M0 1874 l0 -425 53 1 c63 1 117 -9 117 -22 0 -6 45 -8 115 -6 63 1
116 0 118 -3 1 -4 37 -4 80 -1 58 3 77 8 77 19 0 8 4 12 8 9 4 -2 13 -1 20 3
24 15 -25 51 -71 52 l-42 1 39 9 c29 7 42 6 48 -3 6 -10 8 -10 8 0 0 7 13 12
31 12 23 0 30 4 26 14 -5 11 11 15 76 20 45 3 89 5 97 5 8 0 35 3 60 6 25 3
56 8 70 9 14 2 33 6 43 11 11 4 54 5 97 2 65 -5 78 -4 74 8 -7 17 18 31 71 39
59 10 73 21 58 45 -11 18 -8 20 50 30 34 6 107 13 162 15 55 3 154 8 220 12
66 4 134 8 150 8 68 -1 415 -15 478 -19 40 -3 66 -1 63 4 -8 13 24 23 38 13
18 -15 64 -23 71 -13 3 5 -5 12 -17 14 -13 2 121 4 297 5 176 0 311 -4 300 -8
-17 -8 -16 -9 8 -9 19 -1 26 3 21 10 -5 9 7 10 47 5 29 -4 56 -12 59 -17 8
-11 291 -12 345 0 37 8 38 9 10 11 -16 1 -39 6 -50 11 -15 7 -10 8 22 5 28 -3
46 1 54 10 6 8 17 14 23 13 7 0 6 -2 -1 -6 -7 -2 -13 -11 -13 -20 0 -11 7 -13
28 -9 15 3 77 6 137 6 155 -1 169 -2 154 -10 -8 -6 -4 -10 12 -13 13 -2 -11
-5 -53 -6 -43 0 -78 -4 -78 -8 0 -8 44 -7 278 4 l112 5 0 29 c0 26 -3 29 -32
28 -18 0 -78 1 -133 4 -55 3 -86 3 -70 1 48 -9 48 -20 0 -19 -25 0 -45 2 -45
5 0 3 -29 4 -65 2 -42 -3 -65 -1 -65 6 0 7 19 11 45 10 25 0 52 5 60 12 11 9
54 11 160 8 l145 -3 0 247 0 248 -2100 0 -2100 0 0 -426z m2925 257 c3 -5 -3
-12 -12 -15 -10 -3 -7 -4 7 -2 14 2 34 7 44 11 14 6 17 5 12 -3 -10 -17 1 -15
36 6 23 13 32 14 35 5 3 -9 26 -13 66 -13 72 0 97 -11 79 -33 -15 -18 -5 -47
15 -47 8 0 12 4 8 9 -3 6 12 8 35 6 23 -2 38 0 35 6 -4 5 12 9 35 9 36 0 41
-2 35 -19 -7 -23 13 -39 21 -17 6 17 39 22 48 8 8 -13 -8 -30 -39 -43 -37 -14
-87 -20 -80 -9 3 5 1 11 -4 14 -5 3 -11 -1 -15 -9 -4 -10 -20 -15 -50 -15 -27
0 -46 -5 -48 -12 -5 -14 -42 -14 -830 -10 -357 2 -407 4 -402 17 4 8 1 15 -6
15 -7 0 -10 6 -7 13 4 10 -6 13 -40 11 -37 -3 -44 0 -41 14 2 9 12 17 23 18
36 2 40 4 25 14 -9 6 -10 10 -3 10 6 0 14 -4 17 -9 4 -5 27 -9 53 -9 l46 0
-27 18 c-21 13 -24 20 -15 26 7 4 14 3 17 -4 2 -7 8 -10 12 -7 5 3 7 12 3 20
-6 18 8 20 24 4 8 -8 21 -8 45 -1 39 13 126 13 134 0 3 -4 11 -5 17 -1 7 4 26
8 42 10 17 1 47 4 68 6 20 3 40 1 43 -4 3 -5 20 -8 37 -8 l32 1 -30 8 -30 8
31 1 c17 0 34 -2 38 -6 3 -4 23 -8 44 -10 61 -4 79 -12 85 -34 3 -12 10 -18
17 -14 8 5 8 11 -1 21 -9 11 -9 17 1 29 17 20 31 19 23 -2 -6 -15 -4 -16 8 -6
16 12 79 20 94 11 6 -3 24 -4 40 -2 17 2 50 6 73 8 24 3 47 7 50 10 8 9 20 7
27 -3z m817 -63 c16 13 118 8 147 -8 12 -6 25 -8 30 -5 5 3 16 -2 24 -10 9 -8
27 -15 41 -15 32 0 33 -10 5 -34 -18 -15 -32 -17 -93 -11 -88 7 -82 7 -136 1
-25 -3 -46 -10 -48 -16 -5 -15 -65 -12 -106 5 -24 10 -56 14 -88 11 -28 -2
-57 -2 -65 1 -17 6 -17 41 0 39 6 0 12 2 12 6 0 5 18 17 40 29 31 17 50 20 91
16 28 -3 57 -1 64 3 9 5 25 3 41 -7 21 -12 31 -14 41 -5z m-2135 -19 c15 -6
39 -13 53 -14 35 -4 80 -23 80 -33 0 -5 -29 -8 -65 -8 -36 1 -65 5 -65 10 0 5
-3 6 -6 3 -6 -6 -44 35 -44 47 0 9 16 7 47 -5z m-1052 -10 c4 -6 14 -8 22 -4
19 7 53 -3 53 -16 0 -5 -25 -8 -55 -8 -35 1 -55 6 -55 14 0 24 24 33 35 14z
m302 -4 c8 -23 -1 -28 -52 -29 -50 -1 -60 13 -24 31 33 17 68 16 76 -2z m99
-11 c13 -3 24 -10 24 -14 0 -13 -34 -22 -38 -11 -2 6 -17 11 -34 11 -26 0 -29
2 -18 15 7 9 20 13 28 10 7 -3 25 -8 38 -11z m234 1 c0 -8 -4 -15 -9 -15 -13
0 -22 16 -14 24 11 11 23 6 23 -9z m365 -5 c0 -11 -14 -16 -52 -18 -39 -2 -53
1 -53 11 0 22 10 26 59 24 33 -1 46 -6 46 -17z m2596 2 c17 -15 19 -21 9 -27
-9 -5 -11 -4 -6 3 4 7 2 12 -3 12 -6 0 -11 -4 -11 -10 0 -5 -22 -8 -50 -7 -27
1 -50 5 -50 8 0 8 58 35 81 38 4 1 17 -7 30 -17z m-3001 -6 c0 -8 -6 -16 -14
-19 -10 -4 -12 0 -9 14 6 22 23 26 23 5z m-483 -2 c-3 -3 -12 -4 -19 -1 -8 3
-5 6 6 6 11 1 17 -2 13 -5z m613 -4 c0 -5 -5 -10 -11 -10 -5 0 -7 5 -4 10 3 6
8 10 11 10 2 0 4 -4 4 -10z m-175 -10 c3 -5 -1 -10 -9 -10 -8 0 -18 5 -21 10
-3 6 1 10 9 10 8 0 18 -4 21 -10z m265 0 c0 -5 -4 -10 -10 -10 -5 0 -10 5 -10
10 0 6 5 10 10 10 6 0 10 -4 10 -10z m1054 -155 c3 -9 17 -15 33 -14 l28 1
-25 7 c-34 10 515 11 585 2 32 -4 55 -4 55 1 0 10 80 7 255 -7 104 -9 117 -9
200 -7 28 0 70 -1 95 -3 25 -2 61 -5 80 -6 19 -1 -17 -7 -80 -13 -143 -13
-1613 -15 -1825 -2 -194 12 -139 24 86 18 90 -2 171 -4 179 -4 8 -1 24 2 35 6
16 6 17 6 5 -3 -11 -9 11 -11 88 -9 82 2 101 6 97 17 -4 11 2 12 31 8 30 -5
34 -4 24 8 -10 13 -8 15 18 15 17 0 32 -6 36 -15z m-911 -22 c-7 -2 -19 -2
-25 0 -7 3 -2 5 12 5 14 0 19 -2 13 -5z m2230 -40 c-7 -2 -19 -2 -25 0 -7 3
-2 5 12 5 14 0 19 -2 13 -5z m-2525 -88 c-11 -12 -121 -35 -185 -39 -37 -2
-146 -16 -241 -30 -95 -15 -222 -30 -282 -34 -107 -7 -110 -7 -104 13 4 11 10
24 14 28 10 11 168 39 180 32 4 -3 43 0 86 6 44 5 171 14 284 18 113 4 216 9
229 9 13 1 22 0 19 -3z m-872 -63 c-3 -5 -20 -9 -38 -9 -27 -1 -29 1 -13 7 27
11 57 12 51 2z m-206 -22 c0 -6 -27 -9 -62 -9 -54 1 -58 3 -28 9 53 11 90 11
90 0z m727 -26 c-3 -3 -12 -4 -19 -1 -8 3 -5 6 6 6 11 1 17 -2 13 -5z m-644
-81 c-7 -2 -19 -2 -25 0 -7 3 -2 5 12 5 14 0 19 -2 13 -5z m174 1 c-3 -3 -12
-4 -19 -1 -8 3 -5 6 6 6 11 1 17 -2 13 -5z"/>
<path d="M3023 2115 c-7 -8 -9 -16 -4 -19 5 -3 12 1 15 10 8 22 4 25 -11 9z"/>
<path d="M2843 2103 c9 -2 23 -2 30 0 6 3 -1 5 -18 5 -16 0 -22 -2 -12 -5z"/>
<path d="M2390 2096 c0 -2 9 -6 20 -9 11 -3 20 -1 20 4 0 5 -9 9 -20 9 -11 0
-20 -2 -20 -4z"/>
<path d="M2670 2080 c20 -13 50 -13 50 0 0 6 -15 10 -32 10 -25 0 -29 -3 -18
-10z"/>
<path d="M3300 2050 c0 -13 11 -13 30 0 12 8 11 10 -7 10 -13 0 -23 -4 -23
-10z"/>
<path d="M2670 2040 c-12 -8 -11 -10 7 -10 12 0 28 -3 37 -6 9 -3 16 -1 16 6
0 6 -4 9 -9 5 -5 -3 -12 -1 -16 5 -8 12 -16 12 -35 0z"/>
<path d="M2640 1980 c-32 -7 -30 -7 20 -9 39 0 51 2 40 9 -8 5 -17 9 -20 9 -3
-1 -21 -5 -40 -9z"/>
<path d="M3173 1833 c9 -2 25 -2 35 0 9 3 1 5 -18 5 -19 0 -27 -2 -17 -5z"/>
<path d="M448 1623 c7 -3 16 -2 19 1 4 3 -2 6 -13 5 -11 0 -14 -3 -6 -6z"/>
<path d="M3705 1730 c-3 -5 -2 -10 4 -10 5 0 13 5 16 10 3 6 2 10 -4 10 -5 0
-13 -4 -16 -10z"/>
<path d="M3760 1730 c0 -5 5 -10 11 -10 5 0 7 5 4 10 -3 6 -8 10 -11 10 -2 0
-4 -4 -4 -10z"/>
<path d="M2551 1714 c9 -12 3 -14 -32 -14 -32 0 -40 -3 -29 -10 8 -5 25 -10
38 -10 12 0 33 -7 45 -15 20 -13 88 -21 330 -41 42 -3 77 -10 77 -15 0 -5 14
-9 30 -9 28 0 45 -19 18 -21 -7 0 -2 -5 12 -10 45 -18 216 -23 306 -9 111 17
120 33 18 30 -44 -2 -95 -2 -114 -1 l-35 1 30 24 29 23 -39 6 c-22 3 -75 10
-118 16 -42 5 -83 13 -89 17 -11 7 -158 26 -188 24 -114 -7 -170 -7 -140 0 34
7 33 7 -15 9 -27 1 -45 5 -39 9 7 4 -15 7 -47 8 -49 1 -57 -1 -48 -12z"/>
<path d="M1840 1610 c0 -6 7 -10 15 -10 8 0 15 2 15 4 0 2 -7 6 -15 10 -8 3
-15 1 -15 -4z"/>
<path d="M1900 1590 c24 -8 23 -8 -8 -9 -18 -1 -31 -4 -29 -9 6 -9 144 -8 153
1 7 7 -33 11 -68 8 -10 -1 -18 3 -18 8 0 6 -12 11 -27 10 l-28 -1 25 -8z"/>
<path d="M4120 1559 l-45 -7 52 1 c28 1 49 -1 46 -5 -2 -5 -30 -8 -61 -8 -31
0 -68 -3 -82 -7 l-25 -7 30 -7 c25 -6 22 -7 -20 -8 -36 -1 -46 -4 -35 -11 21
-13 157 -13 166 1 3 6 17 8 30 5 22 -6 24 -3 24 29 0 38 1 38 -80 24z m-17
-56 c-7 -2 -19 -2 -25 0 -7 3 -2 5 12 5 14 0 19 -2 13 -5z"/>
<path d="M2050 1531 c0 -6 -9 -11 -20 -11 -11 0 -20 -4 -20 -10 0 -5 8 -10 18
-10 10 0 27 -6 38 -14 14 -11 22 -12 33 -3 11 9 15 9 18 0 6 -18 23 -16 23 1
0 8 6 16 13 19 6 2 -8 7 -33 12 -25 4 -51 12 -57 17 -9 7 -13 7 -13 -1z"/>
<path d="M3894 1533 c3 -4 17 -8 29 -10 17 -2 19 -1 7 7 -17 11 -47 14 -36 3z"/>
<path d="M1630 1500 l-75 -6 65 -4 c36 -2 76 -3 90 -3 14 1 75 2 135 3 67 2
102 6 90 11 -23 9 -195 8 -305 -1z"/>
<path d="M2400 1506 c0 -2 7 -6 15 -10 8 -3 15 -1 15 4 0 6 -7 10 -15 10 -8 0
-15 -2 -15 -4z"/>
<path d="M3898 1503 c7 -3 16 -2 19 1 4 3 -2 6 -13 5 -11 0 -14 -3 -6 -6z"/>
<path d="M2004 1472 c-6 -4 -13 -15 -17 -25 -4 -10 -11 -15 -17 -12 -5 3 -10
-1 -10 -9 0 -23 -17 -19 -23 5 -3 12 -10 18 -16 15 -6 -4 -3 -20 10 -43 15
-26 17 -38 9 -43 -9 -6 -9 -17 0 -46 7 -22 15 -46 17 -54 4 -12 7 -11 13 5 l9
20 0 -20 c0 -11 -4 -29 -8 -39 -7 -18 -8 -18 -25 5 l-18 24 6 -27 c4 -17 1
-32 -10 -42 -8 -9 -12 -16 -8 -16 3 0 1 -7 -6 -15 -10 -12 -9 -15 8 -15 12 0
22 -9 26 -22 5 -19 8 -21 16 -8 7 11 10 7 10 -19 0 -46 6 -37 13 22 6 45 6 47
-13 37 -12 -7 -20 -7 -20 -1 0 14 22 26 43 22 14 -2 18 3 15 16 -4 20 46 58
64 47 6 -4 9 -1 6 7 -3 8 -17 14 -31 13 -25 -1 -45 20 -28 31 5 3 7 14 4 25
-4 14 0 20 10 20 10 0 14 -7 10 -22 -5 -22 -4 -22 16 2 27 33 26 43 -3 38 -19
-4 -22 -1 -18 14 2 10 8 16 12 13 5 -3 11 -1 15 5 4 6 10 8 15 5 4 -3 6 4 3
15 -3 11 -9 17 -14 14 -5 -3 -6 2 -3 10 4 10 1 16 -9 16 -8 0 -18 -6 -20 -12
-3 -7 -6 -1 -6 14 -1 29 -11 41 -27 30z m-3 -175 c-16 -16 -26 0 -10 19 9 11
15 12 17 4 2 -6 -1 -17 -7 -23z"/>
<path d="M1758 1423 c-16 -2 -28 -11 -28 -19 0 -19 -10 -18 -26 4 -13 16 -13
16 -14 0 0 -12 -5 -15 -16 -11 -12 4 -15 2 -12 -8 3 -8 12 -13 21 -11 18 3 33
-36 19 -50 -6 -6 -17 -6 -32 2 -18 10 -21 9 -18 -2 5 -15 69 -48 81 -41 16 9
6 -18 -12 -34 -16 -13 -17 -18 -6 -29 7 -8 23 -26 35 -41 20 -26 23 -27 34
-10 7 9 18 17 25 17 6 0 11 5 11 10 0 14 -28 12 -33 -2 -2 -7 -8 -10 -12 -6
-3 3 3 20 15 36 12 17 19 35 16 41 -4 6 -3 11 3 11 5 0 12 -6 15 -12 3 -7 3
-3 0 10 -3 13 -1 22 6 22 6 0 8 5 5 10 -4 6 4 19 17 30 l23 19 -46 -3 -47 -3
5 38 c3 22 4 38 2 38 -2 -1 -16 -4 -31 -6z"/>
<path d="M138 1396 c-23 -17 -23 -26 2 -26 13 0 20 7 20 20 0 23 0 23 -22 6z"/>
<path d="M215 1400 c-3 -5 1 -10 9 -10 9 0 16 5 16 10 0 6 -4 10 -9 10 -6 0
-13 -4 -16 -10z"/>
<path d="M0 1385 c0 -8 2 -15 4 -15 2 0 6 7 10 15 3 8 1 15 -4 15 -6 0 -10 -7
-10 -15z"/>
<path d="M1410 1371 c0 -14 -2 -14 -10 -1 -11 15 -10 9 5 -65 6 -29 -2 -32
-21 -7 -11 15 -13 14 -10 -12 2 -20 10 -32 26 -38 18 -6 21 -5 16 7 -3 8 -1
15 3 15 14 0 21 -28 8 -33 -9 -3 -9 -8 1 -18 18 -19 15 -26 -13 -31 -17 -4
-25 -1 -25 9 0 8 -5 11 -10 8 -6 -3 -7 -17 -4 -31 3 -13 2 -30 -4 -37 -12 -14
-4 -67 9 -67 5 0 9 -7 9 -16 0 -8 -4 -12 -10 -9 -5 3 -10 1 -10 -4 0 -6 7 -11
15 -11 8 0 15 -4 15 -9 0 -13 -42 -21 -59 -11 -14 8 -14 9 0 10 11 0 17 9 17
25 0 22 -5 25 -34 25 -36 0 -44 16 -21 39 10 10 9 11 -4 6 -12 -5 -18 2 -22
24 -7 35 0 61 16 61 7 0 7 -4 -1 -12 -7 -7 -12 -19 -12 -27 1 -14 3 -13 14 1
7 10 17 14 21 10 4 -4 3 3 -4 15 -15 30 -28 36 -57 29 -16 -4 -24 -13 -24 -28
l0 -21 -25 23 c-27 26 -33 17 -10 -14 8 -11 15 -33 15 -48 0 -16 7 -31 15 -34
25 -10 17 -24 -15 -24 -16 0 -30 5 -30 11 0 5 -8 9 -18 7 -11 -2 -26 3 -35 11
-17 14 -19 11 -21 -24 -1 -27 -36 -33 -36 -6 0 12 -3 21 -8 21 -4 0 -13 10
-21 21 -11 19 -11 21 2 16 11 -4 13 0 9 16 -9 37 -42 51 -42 18 0 -11 -4 -22
-10 -26 -5 -3 -7 -13 -4 -23 4 -10 3 -13 -3 -6 -22 29 -163 19 -163 -12 0 -9
-4 -12 -10 -9 -15 9 -30 -4 -23 -20 3 -8 14 -15 24 -15 25 0 15 -22 -16 -36
-23 -11 -24 -10 -14 7 7 14 6 23 -3 33 -16 15 -38 10 -38 -10 0 -24 -18 -15
-25 13 -5 20 -8 24 -15 13 -5 -9 -22 -13 -43 -12 -28 2 -40 -3 -60 -27 -26
-31 -37 -31 -37 2 0 12 -5 17 -14 14 -10 -4 -14 0 -11 13 3 13 -1 17 -11 13
-8 -3 -14 1 -14 9 0 8 -13 27 -29 42 l-29 28 2 -31 c2 -22 -1 -28 -10 -20 -8
7 -15 2 -22 -18 -12 -36 -62 -46 -62 -12 0 19 -4 20 -45 15 -57 -8 -72 -14
-79 -32 -11 -30 -76 -1 -76 34 0 20 -21 24 -44 8 -28 -18 -66 -10 -66 14 0 10
-7 21 -16 24 -24 9 -26 8 -14 -13 14 -27 13 -31 -10 -31 -20 0 -20 -7 -20
-545 l0 -545 868 0 c662 0 871 3 880 12 9 9 12 9 12 0 0 -16 27 -15 34 1 5 9
7 9 12 0 11 -24 34 -13 40 17 6 27 24 43 24 21 0 -5 9 -7 20 -4 15 4 20 0 20
-16 0 -11 -4 -21 -10 -21 -5 0 -10 4 -10 10 0 5 -7 7 -15 4 -38 -15 6 -24 116
-24 78 0 118 4 114 10 -3 5 1 10 10 10 9 0 13 5 9 11 -4 8 0 9 15 4 13 -4 21
-2 21 5 0 8 -11 11 -28 8 -38 -5 -38 19 0 27 15 4 28 11 28 16 0 6 10 3 22 -5
28 -20 38 -20 38 -2 0 7 9 25 20 39 l20 26 -20 14 c-12 8 -20 18 -19 23 4 22
-2 34 -16 34 -8 0 -15 9 -15 20 0 23 -10 25 -29 8 -11 -11 -13 -10 -8 4 4 10
2 18 -3 18 -6 0 -10 -4 -10 -10 0 -5 -5 -10 -11 -10 -5 0 -7 5 -4 10 4 6 -6
10 -23 10 -19 0 -35 8 -48 25 -26 35 -53 32 -60 -5 -4 -17 -13 -30 -21 -30 -8
0 -11 5 -8 10 7 12 -8 14 -19 2 -4 -4 -13 -7 -19 -7 -7 0 -12 -9 -12 -20 0
-11 -7 -20 -15 -20 -32 -1 -70 -28 -65 -45 4 -13 0 -17 -17 -16 -13 1 -29 -2
-35 -7 -10 -7 -13 -1 -13 25 0 19 4 38 10 44 5 5 6 15 1 22 -10 17 -71 -4 -71
-25 0 -13 -2 -13 -17 -2 -17 15 -50 13 -69 -2 -17 -14 -61 6 -69 30 -3 12 -3
31 0 43 6 16 4 20 -8 15 -8 -3 -24 3 -34 13 -11 10 -33 21 -50 24 -32 7 -49
36 -31 54 14 14 3 42 -16 42 -9 0 -20 -9 -26 -19 -11 -22 -50 -18 -50 5 0 8
-5 14 -11 14 -8 0 -8 5 1 15 16 19 34 19 26 0 -6 -16 9 -21 18 -6 3 5 20 8 37
7 18 -1 33 3 36 11 4 10 9 9 21 -4 10 -9 17 -12 20 -5 2 6 10 8 18 5 18 -7 18
25 0 50 -15 19 -36 23 -36 6 0 -5 -5 -7 -11 -3 -8 5 -8 9 1 14 14 9 -34 70
-56 70 -25 0 -16 40 12 50 28 11 44 6 44 -15 0 -7 7 -15 14 -18 10 -4 13 -1 9
9 -3 7 0 14 6 14 6 0 11 -6 11 -14 0 -8 5 -18 11 -21 16 -11 59 -13 59 -4 0 5
7 9 15 9 8 0 15 5 15 11 0 6 7 9 14 6 10 -4 13 -1 9 9 -6 17 -15 18 -31 2 -8
-8 -12 -8 -12 -1 0 26 35 24 58 -4 17 -21 24 -25 31 -15 12 20 90 8 108 -17 7
-11 20 -18 28 -15 9 4 15 0 15 -9 0 -8 -6 -17 -14 -20 -19 -8 -66 14 -66 31 0
16 -15 15 -29 -1 -13 -17 -4 -28 16 -20 12 5 14 1 8 -15 -7 -23 0 -26 40 -22
11 1 23 7 27 13 5 8 13 8 30 0 13 -7 33 -15 46 -18 13 -4 21 -9 18 -12 -3 -4
-1 -12 5 -20 9 -10 8 -18 -2 -30 -11 -15 -11 -16 1 -6 19 17 46 16 74 -2 22
-15 24 -14 30 10 4 14 13 25 21 25 11 0 12 -6 6 -23 -13 -37 -14 -120 -2 -112
7 4 9 20 5 39 -5 32 -5 33 25 28 17 -2 46 3 65 12 19 9 42 13 52 9 11 -4 15
-3 11 4 -4 6 -1 13 5 16 18 6 3 19 -26 22 -59 7 -88 17 -77 28 7 7 7 16 0 29
-13 24 -28 23 -39 -4 -6 -16 -9 -18 -9 -6 -1 9 -4 24 -8 34 -5 13 -3 15 7 9 8
-5 17 -2 24 8 23 30 76 20 76 -15 0 -10 4 -17 10 -13 5 3 7 12 3 20 -3 9 0 22
7 30 6 8 8 20 4 26 -4 8 -3 9 4 5 8 -5 12 2 12 18 0 16 -6 26 -15 26 -8 0 -15
-4 -15 -10 0 -5 -7 -10 -15 -10 -8 0 -15 -4 -15 -8 0 -13 -43 -7 -48 7 -2 6 0
19 4 29 4 9 8 19 9 22 1 3 5 13 9 22 4 9 5 22 1 28 -3 5 -1 10 5 10 7 0 10 6
7 13 -2 6 10 18 26 25 25 10 27 15 17 27 -9 10 -9 15 -1 15 6 0 11 7 11 15 0
8 9 15 21 15 16 0 19 5 14 23 l-6 22 17 -22 c9 -13 27 -23 40 -23 12 0 26 -5
30 -12 4 -7 3 -8 -4 -4 -7 4 -12 1 -12 -8 0 -19 28 -20 101 -5 40 9 53 8 59
-1 6 -9 9 -9 13 1 3 9 6 6 6 -7 1 -20 4 -21 42 -10 36 9 42 8 57 -10 9 -11 31
-26 47 -34 23 -10 26 -14 13 -17 -10 -3 -18 -10 -18 -16 0 -6 -7 -1 -16 11
-17 25 -36 30 -28 7 4 -10 0 -15 -11 -15 -26 0 -13 -20 23 -36 29 -12 32 -11
32 4 0 14 2 15 15 1 12 -11 13 -22 5 -49 -13 -46 -13 -70 1 -70 6 0 8 7 5 17
-6 15 -4 15 14 -2 21 -19 27 -31 11 -20 -14 8 -25 -15 -13 -27 8 -8 15 -6 26
4 8 9 12 18 9 21 -9 9 45 20 58 11 9 -5 10 -2 6 9 -8 22 16 23 33 2 17 -20 9
-27 -34 -27 -36 0 -46 -10 -25 -24 18 -11 -12 -24 -40 -17 -20 5 -23 3 -18
-12 6 -13 3 -16 -8 -11 -9 3 -18 -1 -21 -9 -4 -8 -13 -15 -21 -15 -12 0 -14 7
-8 28 5 21 4 24 -6 15 -6 -6 -17 -9 -24 -7 -7 3 -16 1 -20 -5 -3 -6 -2 -11 4
-11 6 0 6 -11 0 -32 -13 -47 -11 -68 6 -68 8 0 15 -5 15 -11 0 -7 -9 -9 -22
-5 -58 16 -79 18 -93 6 -17 -14 -21 -35 -5 -25 5 3 27 3 47 -1 21 -4 33 -9 26
-11 -8 -3 -3 -13 14 -29 30 -28 24 -32 -13 -8 -20 13 -24 14 -22 3 2 -8 -3
-13 -11 -11 -12 3 -12 0 -1 -12 10 -13 10 -19 0 -31 -12 -15 -4 -20 23 -16 12
2 8 -11 -10 -31 -13 -14 -14 -21 -5 -30 17 -17 15 -28 -5 -28 -16 -1 -15 -3 4
-19 19 -16 20 -20 7 -25 -9 -3 -12 -11 -8 -18 5 -7 2 -9 -7 -6 -11 4 -15 -3
-16 -29 -1 -39 18 -53 44 -32 15 13 15 12 5 -8 -16 -29 -32 -38 -42 -23 -4 7
-10 8 -13 3 -17 -28 51 -33 412 -33 364 0 369 0 374 21 4 14 -3 28 -24 46 -16
15 -29 30 -29 35 0 4 14 -5 31 -21 27 -26 35 -42 38 -74 2 -12 879 -8 883 5 3
8 10 8 25 -1 12 -6 26 -11 32 -11 8 0 11 64 11 196 0 175 -2 198 -17 211 -17
14 -17 14 0 9 16 -5 17 18 17 398 l0 404 -29 5 c-16 3 -36 13 -44 22 -9 8 -24
15 -35 15 -11 0 -25 7 -32 15 -7 8 -22 15 -34 15 -250 10 -257 10 -263 -8 -4
-9 -12 -20 -19 -25 -7 -4 -11 -14 -8 -22 4 -8 1 -15 -5 -15 -6 0 -11 7 -11 15
0 8 -7 15 -16 15 -8 0 -13 -4 -10 -9 19 -29 -29 -53 -63 -32 -18 11 -2 19 32
15 15 -1 27 0 27 4 -1 16 -28 42 -44 42 -9 0 -28 8 -43 17 -24 16 -26 16 -39
-2 -8 -10 -12 -27 -8 -37 4 -14 0 -18 -23 -19 -164 -3 -172 -4 -208 -39 -48
-46 -88 -27 -50 24 22 29 19 32 -20 28 -29 -3 -33 -7 -24 -18 19 -23 -18 -18
-43 6 -27 25 -28 25 -72 -5 -35 -24 -72 -24 -63 -1 3 8 -8 13 -29 14 -62 4
-74 6 -74 14 0 4 -9 8 -19 8 -11 0 -21 5 -23 10 -5 17 -87 41 -115 34 -19 -5
-24 -4 -18 6 5 9 2 10 -14 5 -11 -3 -21 -2 -21 3 0 17 -49 20 -94 5 -44 -15
-66 -48 -50 -75 5 -7 3 -8 -5 -4 -14 9 -40 -21 -41 -46 0 -19 -20 -26 -20 -7
0 5 -5 7 -10 4 -6 -4 -8 -10 -6 -14 3 -4 -6 -8 -20 -9 -18 -1 -25 4 -30 26 -3
15 -7 33 -10 40 -2 6 2 12 9 12 7 0 19 15 27 33 7 17 15 34 17 37 1 3 -8 10
-22 16 -19 9 -28 9 -44 -3 -32 -22 -44 -50 -31 -73 8 -15 8 -20 -1 -20 -7 0
-9 -10 -6 -29 l6 -28 -77 -12 c-42 -7 -87 -17 -99 -22 -13 -4 -30 -6 -38 -3
-8 4 -15 1 -15 -5 0 -6 -8 -11 -17 -11 -19 -1 -75 -29 -59 -30 5 0 1 -9 -9
-20 -16 -18 -16 -20 -2 -20 10 0 17 6 17 13 0 6 5 4 11 -5 5 -10 19 -18 29
-18 10 0 22 -5 25 -11 4 -6 0 -9 -11 -7 -12 2 -18 -2 -16 -12 1 -10 -3 -9 -14
5 -15 20 -16 19 -12 -5 2 -17 9 -25 21 -24 9 1 17 -2 17 -8 0 -5 5 -6 10 -3 6
3 10 -1 10 -9 0 -9 5 -16 10 -16 19 0 10 -23 -17 -46 -18 -15 -34 -21 -43 -17
-8 4 -35 7 -60 6 -25 -1 -61 -1 -80 -1 -19 0 -61 0 -93 0 -31 0 -55 3 -52 8 3
5 13 6 22 3 11 -4 14 -3 9 6 -4 6 -1 23 8 36 13 20 14 29 4 50 -6 14 -15 25
-20 25 -4 0 -8 7 -8 16 0 8 -4 13 -9 9 -5 -3 -12 -1 -16 5 -4 6 -11 8 -16 4
-6 -3 -19 3 -30 15 -15 16 -24 19 -38 11 -14 -7 -22 -6 -30 4 -11 13 -33 17
-86 17 -62 0 -83 -6 -94 -23 -10 -16 -7 -18 31 -18 27 0 38 -3 30 -9 -7 -4
-30 -8 -50 -7 -28 1 -39 6 -47 23 -5 12 -22 24 -37 27 -26 5 -40 26 -18 26 6
0 10 8 10 18 -1 16 -1 16 -11 0 -11 -19 -39 -25 -39 -8 0 6 5 10 10 10 6 0 10
7 10 16 0 8 4 13 9 9 6 -3 13 15 16 40 4 25 11 45 16 45 5 0 9 6 9 14 0 7 9
25 21 40 24 30 18 51 -11 36 -26 -14 -28 -13 -23 13 4 19 0 22 -26 23 -22 1
-31 -3 -31 -15z m1240 -107 c0 -8 -19 -13 -24 -6 -3 5 1 9 9 9 8 0 15 -2 15
-3z m350 -54 c0 -5 -4 -10 -10 -10 -5 0 -10 5 -10 10 0 6 5 10 10 10 6 0 10
-4 10 -10z m60 -25 c0 -8 -7 -15 -15 -15 -9 0 -12 6 -9 15 4 8 10 15 15 15 5
0 9 -7 9 -15z m150 -22 c0 -13 -3 -13 -15 -3 -8 7 -12 16 -9 21 8 13 24 1 24
-18z m254 -24 c-3 -5 5 -9 18 -9 23 -1 23 -1 3 -16 -18 -13 -20 -13 -27 6 -7
18 -19 25 -40 21 -16 -2 -7 18 10 21 20 5 44 -10 36 -23z m-2208 -36 c-11 -11
-17 4 -9 23 7 18 8 18 11 1 2 -10 1 -21 -2 -24z m1365 10 c-12 -20 -14 -14 -5
12 4 9 9 14 11 11 3 -2 0 -13 -6 -23z m743 21 c19 -7 21 -30 4 -37 -9 -4 -6
-11 10 -24 21 -18 22 -19 3 -19 -11 0 -18 3 -15 7 2 4 -5 10 -16 14 -23 7 -27
25 -5 25 8 0 15 5 15 10 0 6 -4 10 -10 10 -5 0 -10 5 -10 10 0 12 3 12 24 4z
m-284 -20 c0 -2 -11 -4 -25 -4 -14 0 -25 4 -25 9 0 4 11 6 25 3 14 -2 25 -6
25 -8z m-105 -4 c3 -5 -1 -10 -9 -10 -9 0 -16 5 -16 10 0 6 4 10 9 10 6 0 13
-4 16 -10z m462 -4 c-3 -8 -1 -17 6 -20 7 -2 2 -5 -10 -5 -25 -1 -29 9 -11 27
16 16 21 15 15 -2z m132 -2 c2 -1 -9 -15 -23 -29 -22 -22 -30 -24 -41 -15 -31
26 -7 63 34 53 14 -3 28 -7 30 -9z m-639 -8 c-7 -7 -13 -7 -20 0 -6 6 -3 10
10 10 13 0 16 -4 10 -10z m675 -16 c-5 -8 -11 -8 -17 -2 -6 6 -7 16 -3 22 5 8
11 8 17 2 6 -6 7 -16 3 -22z m-3450 10 c3 -5 -1 -10 -10 -10 -9 0 -13 5 -10
10 3 6 8 10 10 10 2 0 7 -4 10 -10z m810 -17 c16 -16 33 -27 37 -25 5 1 8 -3
8 -8 0 -20 -27 -9 -59 25 -39 41 -29 47 14 8z m315 7 c0 -5 -4 -10 -10 -10 -5
0 -10 5 -10 10 0 6 5 10 10 10 6 0 10 -4 10 -10z m1130 -11 c0 -5 -7 -9 -16
-9 -8 0 -12 -5 -8 -11 3 -6 0 -15 -7 -20 -25 -15 9 -34 64 -35 68 -1 86 -10
79 -36 -3 -14 -1 -19 6 -14 7 4 12 1 12 -8 0 -18 -50 -22 -79 -6 -25 13 -76
13 -145 -1 -36 -7 -61 -8 -65 -2 -3 5 -14 12 -23 16 -19 7 -26 67 -9 67 5 0
12 7 15 16 5 13 2 15 -13 11 -17 -4 -18 -2 -9 19 6 13 15 21 20 18 4 -3 6 -9
3 -14 -3 -4 7 -11 22 -15 17 -4 29 -2 31 5 3 8 8 8 18 -1 11 -9 14 -8 14 5 0
9 8 16 19 16 11 0 22 4 25 9 7 11 46 2 46 -10z m311 4 c11 -15 11 -16 0 -6
-11 9 -17 9 -28 -3 -8 -8 -20 -14 -26 -14 -7 1 -1 10 12 20 28 24 26 24 42 3z
m-444 -9 c-3 -3 -12 -4 -19 -1 -8 3 -5 6 6 6 11 1 17 -2 13 -5z m-1387 -14 c0
-5 -7 -7 -15 -4 -8 4 -15 8 -15 10 0 2 7 4 15 4 8 0 15 -4 15 -10z m167 -15
c-4 -8 -11 -15 -17 -15 -6 0 -6 7 2 20 14 22 24 19 15 -5z m148 15 c3 -5 1
-10 -4 -10 -6 0 -11 5 -11 10 0 6 2 10 4 10 3 0 8 -4 11 -10z m108 -3 c4 -10
-2 -13 -19 -9 -13 2 -21 8 -18 13 8 14 31 11 37 -4z m2268 -10 c-7 -7 -14 -8
-21 -1 -6 6 -2 10 12 11 16 2 18 -1 9 -10z m-2406 -7 c4 -6 11 -8 16 -5 5 4 9
4 9 1 0 -2 3 -12 7 -22 4 -12 3 -15 -5 -10 -8 5 -10 2 -6 -8 5 -13 -2 -16 -35
-16 -30 0 -41 4 -41 15 0 14 17 20 47 16 19 -3 4 27 -15 32 -16 4 -16 5 0 6 9
0 20 -4 23 -9z m-471 -25 l16 -25 -27 12 c-37 16 -36 15 -28 27 10 17 21 13
39 -14z m796 -1 c0 -8 9 -14 20 -14 11 0 20 -4 20 -10 0 -5 -6 -10 -13 -10
-18 0 -69 44 -61 52 10 10 34 -3 34 -18z m40 6 c0 -5 -7 -7 -15 -4 -8 4 -12
10 -9 15 6 11 24 2 24 -11z m-212 -10 c7 -12 17 -18 22 -15 16 10 11 -11 -5
-25 -18 -15 -20 -40 -4 -40 8 0 8 -4 0 -14 -9 -11 -9 -15 1 -19 25 -9 -1 -19
-32 -12 -27 6 -31 11 -27 31 2 13 0 24 -4 24 -5 0 -9 -7 -9 -15 0 -8 -4 -15
-10 -15 -5 0 -10 9 -10 20 0 11 7 20 15 20 20 0 19 30 -2 47 -16 13 -16 14 -1
9 9 -2 22 2 28 10 16 19 23 18 38 -6z m2263 1 c-17 -11 3 -25 25 -17 8 3 23
-3 34 -14 17 -17 18 -23 8 -40 -7 -11 -17 -19 -23 -17 -6 1 -11 -2 -12 -8 -1
-5 10 -9 25 -7 26 3 26 3 7 -12 -12 -9 -15 -16 -7 -17 21 -3 26 -4 65 -23 20
-10 38 -21 38 -25 7 -28 6 -72 -2 -77 -5 -3 -9 2 -9 10 0 12 -10 16 -37 16
-42 0 -78 -18 -55 -27 10 -4 9 -8 -5 -18 -12 -9 -23 -10 -36 -3 -10 5 -21 7
-24 5 -3 -3 9 -13 25 -21 17 -9 32 -21 35 -28 3 -10 9 -10 28 1 22 13 23 13
11 -1 -11 -13 -8 -19 14 -36 l28 -19 -22 -12 c-21 -11 -21 -12 -2 -31 11 -11
25 -20 31 -20 18 0 4 -23 -17 -27 -42 -7 -76 -6 -83 5 -3 6 -19 9 -34 8 -17
-2 -33 3 -40 13 -7 9 -21 23 -31 31 -18 13 -19 13 -11 0 5 -10 1 -8 -13 4 -12
10 -24 27 -28 38 -4 13 -11 17 -24 13 -34 -11 -70 5 -70 31 0 17 6 24 19 24
11 0 27 3 37 7 11 4 15 3 11 -5 -9 -13 14 -18 71 -13 40 3 44 5 39 27 -2 15 2
25 12 29 13 5 14 7 1 15 -10 7 -11 10 -2 10 6 0 12 7 12 15 0 18 -36 20 -73 3
-42 -20 -34 -33 18 -28 16 1 17 -1 8 -11 -10 -10 -18 -10 -38 -1 -14 7 -43 12
-63 12 -34 0 -37 3 -39 29 -2 22 3 32 18 36 13 4 18 12 15 21 -3 8 -2 13 3 10
5 -3 11 1 15 9 3 8 0 15 -6 15 -7 0 -6 5 2 15 6 8 9 19 5 25 -7 12 19 53 28
43 12 -11 8 -23 -8 -23 -8 0 -15 -4 -15 -10 0 -5 17 -10 37 -10 40 0 41 -7 2
-14 -13 -2 -25 -5 -27 -5 -2 -1 4 -8 13 -17 21 -21 70 -11 61 13 -4 9 -1 20 6
25 10 6 7 10 -9 14 -15 4 -23 14 -23 29 0 18 8 25 38 33 48 13 60 14 43 3z
m-2761 -15 c0 -7 -11 -16 -25 -19 -25 -4 -25 -4 -9 14 20 22 34 24 34 5z
m2547 -8 c-3 -8 -6 -5 -6 6 -1 11 2 17 5 13 3 -3 4 -12 1 -19z m-1980 6 c-3
-3 -12 -4 -19 -1 -8 3 -5 6 6 6 11 1 17 -2 13 -5z m1693 -4 c0 -5 -4 -10 -10
-10 -5 0 -10 5 -10 10 0 6 5 10 10 10 6 0 10 -4 10 -10z m-2087 -19 c7 -27 77
-44 158 -38 l67 5 6 -40 c7 -44 2 -58 -15 -41 -7 7 -20 8 -34 3 -17 -6 -29 -2
-56 21 -19 16 -43 29 -55 29 -11 0 -24 3 -28 7 -4 4 -13 8 -19 9 -7 0 -20 2
-29 2 -13 2 -18 11 -18 32 0 34 15 41 23 11z m467 -14 c0 -16 -35 -1 -38 16
-3 16 -1 17 17 5 12 -7 21 -17 21 -21z m2660 29 c0 -11 -19 -15 -25 -6 -3 5 1
10 9 10 9 0 16 -2 16 -4z m-3407 -18 c12 3 19 1 15 -3 -4 -4 -3 -16 2 -26 7
-12 6 -19 -2 -21 -9 -3 -9 -6 -1 -11 6 -4 19 0 28 10 16 16 18 16 31 -2 8 -10
14 -23 14 -27 0 -15 -52 -58 -71 -58 -10 0 -20 -3 -23 -8 -2 -4 13 -6 35 -4
25 3 39 0 39 -8 0 -6 5 -8 10 -5 6 3 10 -1 10 -9 0 -9 0 -19 0 -23 0 -5 -4 -9
-10 -9 -21 -3 -22 -4 -10 -19 11 -13 8 -15 -16 -16 -26 0 -25 -2 11 -13 30 -9
41 -17 44 -36 l4 -25 7 25 c4 18 13 25 28 24 13 0 21 4 19 10 -2 6 -12 10 -21
10 -12 -2 -15 3 -10 19 5 16 3 19 -10 14 -26 -10 -18 12 16 43 27 25 30 31 18
45 -12 15 -11 16 6 13 19 -3 54 -35 54 -49 0 -5 -6 -6 -14 -3 -8 3 -17 0 -21
-5 -3 -6 -11 -9 -16 -6 -5 4 -9 2 -9 -3 0 -16 13 -22 25 -12 15 13 55 1 55
-17 0 -8 7 -27 15 -43 10 -19 11 -30 5 -30 -6 0 -9 -4 -5 -10 8 -13 35 -1 35
15 0 8 4 16 8 19 4 2 8 -8 7 -24 0 -15 -3 -26 -7 -23 -5 2 -8 0 -8 -5 0 -5
-10 -13 -22 -17 -20 -6 -20 -8 -5 -12 9 -2 17 -8 17 -13 0 -5 7 -6 17 -3 9 4
14 2 11 -3 -4 -5 -41 -9 -84 -9 -73 0 -79 2 -92 25 l-14 25 6 -27 c6 -27 5
-28 -36 -29 -24 -1 -61 -1 -83 0 -25 2 -70 -9 -118 -27 -42 -17 -79 -26 -83
-21 -3 5 -14 9 -24 9 -10 0 -25 9 -33 20 -8 11 -17 17 -20 13 -4 -3 -7 1 -7
10 0 9 -7 17 -16 17 -8 0 -13 4 -10 9 4 5 0 12 -6 14 -8 3 -6 6 5 6 9 1 17 8
17 17 0 8 4 12 10 9 5 -3 19 -1 31 5 15 9 19 18 15 35 -8 30 17 46 53 35 39
-10 87 5 87 29 0 20 -1 20 -31 1 -30 -18 -57 -21 -71 -7 -4 4 1 9 10 13 9 3
13 10 10 15 -3 5 -10 7 -15 4 -5 -4 -9 3 -9 14 0 24 28 29 48 9 9 -9 12 -9 12
0 0 7 14 12 33 13 32 0 84 17 59 18 -7 1 -10 6 -6 12 3 6 15 9 25 6 11 -3 17
-1 13 4 -8 13 10 11 24 -3 9 -9 12 -9 12 0 0 7 -4 12 -10 12 -5 0 -10 5 -10
10 0 6 -9 19 -20 30 -12 12 -17 26 -13 37 4 9 8 12 10 6 2 -6 14 -8 26 -5z
m687 3 c0 -5 -10 -11 -22 -15 -34 -9 -38 -7 -32 9 6 16 54 21 54 6z m-554 -27
c-3 -9 -6 -20 -6 -25 0 -6 -4 -8 -9 -5 -5 4 -11 0 -14 -6 -2 -7 -8 -10 -12 -6
-9 9 21 58 36 58 6 0 8 -7 5 -16z m108 0 c5 -13 2 -15 -14 -11 -14 4 -32 -4
-56 -25 -18 -16 -34 -25 -34 -20 0 13 28 42 41 42 6 0 8 4 4 9 -5 9 12 17 41
20 7 0 15 -6 18 -15z m3204 10 c12 -4 22 -11 22 -16 0 -6 -9 -8 -20 -5 -10 3
-24 -1 -30 -8 -16 -19 -39 -8 -33 16 5 20 22 23 61 13z m-818 -22 c0 -4 -11
-12 -25 -19 -28 -13 -33 -2 -9 21 15 15 34 14 34 -2z m-520 -2 c0 -5 -2 -10
-4 -10 -3 0 -8 5 -11 10 -3 6 -1 10 4 10 6 0 11 -4 11 -10z m-66 -21 c-8 -14
-24 -10 -24 6 0 9 6 12 15 9 8 -4 12 -10 9 -15z m-349 0 c11 -16 1 -19 -13 -3
-7 8 -8 14 -3 14 5 0 13 -5 16 -11z m-35 -3 c0 -2 -11 -6 -25 -8 -14 -3 -25
-1 -25 3 0 5 11 9 25 9 14 0 25 -2 25 -4z m-1114 -33 c-10 -10 -19 5 -10 18 6
11 8 11 12 0 2 -7 1 -15 -2 -18z m852 10 c6 -19 -35 -16 -42 3 -4 11 0 15 16
12 12 -2 23 -9 26 -15z m-1544 -16 c6 -9 8 -19 5 -22 -9 -9 -40 6 -33 16 3 5
-5 9 -18 10 -22 0 -22 1 -3 9 25 11 36 8 49 -13z m-144 -17 c0 -5 -4 -10 -10
-10 -5 0 -10 5 -10 10 0 6 5 10 10 10 6 0 10 -4 10 -10z m845 0 c-3 -5 -11
-10 -16 -10 -6 0 -7 5 -4 10 3 6 11 10 16 10 6 0 7 -4 4 -10z m2044 -10 c21
-10 42 -16 45 -12 4 3 4 0 1 -9 -5 -12 -14 -13 -61 -5 -30 6 -51 12 -45 14 6
2 11 10 11 18 0 18 3 18 49 -6z m-2988 -12 c11 -21 11 -22 -4 -9 -10 7 -17 17
-17 22 0 15 9 10 21 -13z m709 0 c0 -6 -7 -8 -15 -5 -23 9 -26 -8 -4 -26 20
-17 26 -57 9 -57 -5 0 -10 11 -10 24 0 32 -16 42 -29 18 -7 -13 -7 -22 0 -29
7 -7 7 -13 1 -17 -6 -3 -14 8 -17 26 -4 17 -14 39 -22 47 -13 13 -11 16 19 26
36 12 68 9 68 -7z m530 18 c0 -3 -4 -8 -10 -11 -5 -3 -10 -1 -10 4 0 6 5 11
10 11 6 0 10 -2 10 -4z m423 -27 c-7 -24 -12 -24 -29 -1 -19 25 -17 30 10 25
17 -4 22 -10 19 -24z m797 -23 c0 -12 -14 5 -31 39 -8 16 -6 15 10 -4 12 -13
21 -28 21 -35z m-2332 22 c-3 -7 -13 -15 -24 -17 -16 -3 -17 -1 -5 13 16 19
34 21 29 4z m-151 -12 c0 -8 -8 -11 -20 -8 -14 4 -16 7 -5 13 19 12 25 11 25
-5z m1106 7 c-7 -2 -13 -11 -13 -18 0 -7 -7 -16 -16 -19 -8 -3 -12 -10 -9 -16
3 -6 -1 -7 -9 -4 -10 4 -16 18 -16 35 0 27 3 29 38 28 20 0 31 -3 25 -6z
m-926 -19 c-3 -3 -12 -4 -19 -1 -8 3 -5 6 6 6 11 1 17 -2 13 -5z m2419 -9 c16
-13 17 -16 4 -24 -9 -7 -18 -7 -24 -1 -6 6 -20 10 -33 10 -27 0 -31 16 -5 23
31 8 38 7 58 -8z m-1806 -17 c0 -19 -2 -20 -10 -8 -13 19 -13 30 0 30 6 0 10
-10 10 -22z m418 -33 c-9 -9 -30 14 -23 25 6 9 10 8 17 -4 6 -10 8 -19 6 -21z
m-52 10 c-6 -8 -15 -9 -22 -4 -6 5 -14 6 -17 2 -4 -3 -7 -1 -7 5 0 6 13 10 29
10 23 -1 26 -4 17 -13z m139 5 c-3 -5 -11 -10 -16 -10 -6 0 -7 5 -4 10 3 6 11
10 16 10 6 0 7 -4 4 -10z m1805 -4 c0 -3 -4 -8 -10 -11 -5 -3 -10 -1 -10 4 0
6 5 11 10 11 6 0 10 -2 10 -4z m311 -19 c-10 -9 -11 -8 -5 6 3 10 9 15 12 12
3 -3 0 -11 -7 -18z m-1959 1 c-9 -9 -15 -9 -24 0 -9 9 -7 12 12 12 19 0 21 -3
12 -12z m1455 6 c-3 -3 -12 -4 -19 -1 -8 3 -5 6 6 6 11 1 17 -2 13 -5z m-2043
-48 c-3 -9 -10 -16 -14 -16 -14 0 -17 24 -6 42 9 14 12 15 18 4 5 -8 5 -21 2
-30z m1540 11 c13 3 27 0 30 -6 5 -7 -4 -10 -26 -8 -18 2 -39 -1 -45 -6 -9 -7
-13 -5 -13 6 0 16 23 30 28 17 1 -4 13 -5 26 -3z m146 -8 c0 -6 -4 -7 -10 -4
-5 3 -10 0 -10 -9 0 -8 -6 -16 -12 -19 -10 -3 -9 -8 2 -22 14 -17 14 -18 -8
-6 -13 7 -21 15 -18 18 3 4 1 12 -5 20 -9 10 -8 13 0 13 7 0 19 7 28 15 15 15
33 12 33 -6z m510 -2 c0 -14 -5 -18 -20 -14 -11 3 -27 -1 -34 -9 -20 -19 -26
-18 -26 6 0 16 -7 20 -32 21 l-33 1 30 7 c17 4 49 7 73 7 35 1 42 -3 42 -19z
m-2260 -5 c0 -11 -11 -24 -25 -30 -21 -10 -23 -9 -18 6 15 41 43 56 43 24z
m290 14 c0 -19 -14 -34 -27 -29 -11 4 -14 2 -9 -5 4 -7 2 -12 -3 -12 -12 0
-15 33 -4 43 7 8 43 10 43 3z m1617 -2 c-3 -3 -12 -4 -19 -1 -8 3 -5 6 6 6 11
1 17 -2 13 -5z m-87 -8 c0 -3 -4 -8 -10 -11 -5 -3 -10 -1 -10 4 0 6 5 11 10
11 6 0 10 -2 10 -4z m-1083 -26 c10 0 10 -6 1 -25 -12 -27 -38 -26 -67 2 -12
13 -12 16 0 24 8 5 23 7 34 4 11 -2 26 -5 32 -5z m163 -20 c8 -5 10 -10 3 -10
-6 0 -9 -8 -6 -19 3 -10 0 -22 -6 -25 -6 -4 -9 -1 -5 7 3 8 1 18 -5 22 -12 7
-15 35 -3 35 4 0 14 -5 22 -10z m945 0 c3 -5 2 -10 -4 -10 -5 0 -13 5 -16 10
-3 6 -2 10 4 10 5 0 13 -4 16 -10z m-1630 -10 c3 -5 -1 -10 -10 -10 -9 0 -13
5 -10 10 3 6 8 10 10 10 2 0 7 -4 10 -10z m1915 0 c0 -5 -4 -10 -9 -10 -6 0
-13 5 -16 10 -3 6 1 10 9 10 9 0 16 -4 16 -10z m-2369 -73 c-10 -9 -11 -8 -5
6 3 10 9 15 12 12 3 -3 0 -11 -7 -18z m1078 -3 c3 -15 1 -16 -11 -6 -8 6 -18
9 -21 5 -4 -3 -7 -2 -7 4 0 29 33 27 39 -3z m1945 10 c25 -10 19 -22 -9 -16
-14 2 -25 8 -25 13 0 10 12 11 34 3z m-3049 -23 c-3 -6 -11 -11 -17 -11 -6 0
-6 6 2 15 14 17 26 13 15 -4z m-120 -11 c3 -5 1 -10 -4 -10 -6 0 -11 5 -11 10
0 6 2 10 4 10 3 0 8 -4 11 -10z m85 -4 c0 -11 -19 -15 -25 -6 -3 5 1 10 9 10
9 0 16 -2 16 -4z m85 -14 c-3 -3 -11 0 -18 7 -9 10 -8 11 6 5 10 -3 15 -9 12
-12z m405 3 c0 -8 -4 -15 -8 -15 -5 0 -9 7 -9 15 0 8 4 15 9 15 4 0 8 -7 8
-15z m95 -15 c3 -5 2 -10 -4 -10 -5 0 -13 5 -16 10 -3 6 -2 10 4 10 5 0 13 -4
16 -10z m48 -9 c-3 -12 -11 -17 -19 -14 -17 6 -18 20 -1 26 22 9 25 7 20 -12z
m-623 5 c0 -3 -4 -8 -10 -11 -5 -3 -10 -1 -10 4 0 6 5 11 10 11 6 0 10 -2 10
-4z m-58 -20 c3 2 8 -2 12 -11 4 -11 1 -15 -11 -13 -9 2 -18 -3 -20 -9 -3 -8
5 -13 22 -13 15 0 24 -4 20 -10 -16 -25 -75 -3 -75 27 0 22 23 42 36 32 6 -5
13 -6 16 -3z m96 -11 c-3 -3 -9 2 -12 12 -6 14 -5 15 5 6 7 -7 10 -15 7 -18z
m3035 18 c-7 -2 -19 -2 -25 0 -7 3 -2 5 12 5 14 0 19 -2 13 -5z m-2658 -23 c3
-5 2 -10 -4 -10 -5 0 -13 5 -16 10 -3 6 -2 10 4 10 5 0 13 -4 16 -10z m845 -4
c0 -3 -4 -8 -10 -11 -5 -3 -10 -1 -10 4 0 6 5 11 10 11 6 0 10 -2 10 -4z
m-1235 -16 c-3 -5 -12 -10 -18 -10 -7 0 -6 4 3 10 19 12 23 12 15 0z m2415
-30 c0 -5 -4 -10 -10 -10 -5 0 -10 5 -10 10 0 6 5 10 10 10 6 0 10 -4 10 -10z
m884 -11 c-3 -5 -10 -7 -15 -3 -5 3 -7 10 -3 15 3 5 10 7 15 3 5 -3 7 -10 3
-15z m-3234 1 c-11 -7 -1 -10 34 -10 42 0 47 -2 36 -15 -7 -8 -19 -15 -27 -15
-9 0 -13 -6 -10 -15 4 -8 1 -17 -5 -21 -7 -4 -8 -3 -4 4 4 7 3 12 -3 12 -5 0
-13 -5 -16 -11 -5 -7 -16 -2 -31 12 l-24 23 22 23 c12 13 26 23 32 23 6 0 4
-5 -4 -10z m2290 -41 c0 -14 -17 -10 -23 5 -4 10 -1 13 9 9 7 -3 14 -9 14 -14z
m964 -34 c-3 -6 -17 -10 -34 -7 -24 3 -30 9 -30 28 0 23 0 24 34 7 19 -9 32
-21 30 -28z m-1004 15 c0 -5 -7 -7 -15 -4 -8 4 -15 8 -15 10 0 2 7 4 15 4 8 0
15 -4 15 -10z m-2198 -76 c-4 -40 -16 -63 -28 -51 -4 4 -2 12 4 19 5 7 8 28 6
46 -3 23 0 32 8 30 8 -3 12 -19 10 -44z m38 36 c0 -5 -2 -10 -4 -10 -3 0 -8 5
-11 10 -3 6 -1 10 4 10 6 0 11 -4 11 -10z m2240 -15 c0 -8 -7 -15 -16 -15 -14
0 -14 3 -4 15 7 8 14 15 16 15 2 0 4 -7 4 -15z m-2400 -15 c-20 -13 -33 -13
-25 0 3 6 14 10 23 10 15 0 15 -2 2 -10z m46 -5 c-3 -9 3 -19 15 -26 11 -6 19
-13 16 -15 -2 -2 -15 1 -29 9 -20 10 -23 16 -14 30 13 21 20 22 12 2z m2239
-13 c0 -18 -20 -15 -23 4 -3 10 1 15 10 12 7 -3 13 -10 13 -16z m88 -24 c-5
-10 -33 10 -33 23 0 5 9 4 19 -3 11 -7 17 -16 14 -20z m-2397 -9 c-27 -21 -36
-24 -36 -10 0 17 30 40 45 35 12 -5 10 -10 -9 -25z m221 9 c-3 -8 -6 -5 -6 6
-1 11 2 17 5 13 3 -3 4 -12 1 -19z m-119 -32 c18 -18 28 -86 12 -86 -8 0 -10
8 -6 23 9 36 -20 69 -58 66 -17 -2 -39 -9 -48 -18 -23 -18 -23 -3 -1 21 14 15
25 18 53 13 19 -4 41 -12 48 -19z m950 -21 c-3 -3 -9 2 -12 12 -6 14 -5 15 5
6 7 -7 10 -15 7 -18z m-248 11 c0 -3 -4 -8 -10 -11 -5 -3 -10 -1 -10 4 0 6 5
11 10 11 6 0 10 -2 10 -4z m-833 -31 c8 -17 8 -27 1 -32 -7 -3 -8 -1 -4 5 4 7
3 12 -2 12 -5 0 -12 9 -15 20 -7 28 6 25 20 -5z m-27 -44 c0 -6 -4 -12 -8 -15
-5 -3 -9 1 -9 9 0 8 4 15 9 15 4 0 8 -4 8 -9z m1120 -1 c0 -5 -9 -10 -21 -10
-11 0 -17 5 -14 10 3 6 13 10 21 10 8 0 14 -4 14 -10z m1057 -10 c1 -11 -2
-20 -8 -20 -5 0 -9 6 -9 14 0 8 -6 17 -12 19 -7 3 -4 6 7 6 14 1 21 -6 22 -19z
m-104 3 c-17 -6 -16 -18 2 -37 8 -8 11 -17 6 -21 -5 -3 -12 4 -16 15 -4 11
-14 19 -22 18 -22 -4 -28 19 -6 25 25 7 51 7 36 0z m-1312 -26 c-10 -9 -11 -8
-5 6 3 10 9 15 12 12 3 -3 0 -11 -7 -18z m-997 -14 c-9 -35 -7 -34 -24 -22
-11 8 -12 12 -2 16 6 2 12 11 12 19 0 8 5 14 10 14 6 0 8 -11 4 -27z m2026 16
c0 -5 5 -7 12 -3 7 5 8 3 4 -5 -5 -7 -14 -10 -22 -7 -9 4 -14 -2 -14 -16 0
-12 -3 -19 -6 -15 -9 9 5 57 16 57 6 0 10 -5 10 -11z m92 -21 c-9 -9 -42 -1
-42 12 0 4 12 5 26 2 15 -3 22 -8 16 -14z m64 13 c-3 -5 1 -11 9 -15 9 -3 15
0 15 9 0 17 35 20 45 5 12 -20 -7 -32 -21 -13 -8 11 -13 13 -14 5 0 -18 -41
-32 -62 -20 -21 10 -24 30 -4 22 8 -3 17 -1 21 5 3 6 8 11 11 11 3 0 3 -4 0
-9z m179 -1 c3 -5 3 -15 -1 -21 -6 -11 -23 6 -24 24 0 10 18 9 25 -3z m-1265
-31 c0 -20 -15 -26 -24 -10 -8 13 4 42 15 35 5 -3 9 -14 9 -25z m21 4 c-12
-20 -14 -14 -5 12 4 9 9 14 11 11 3 -2 0 -13 -6 -23z m-911 -3 c0 -5 -5 -10
-11 -10 -5 0 -7 5 -4 10 3 6 8 10 11 10 2 0 4 -4 4 -10z m3390 -12 c0 -6 -6
-5 -15 2 -8 7 -15 14 -15 16 0 2 7 1 15 -2 8 -4 15 -11 15 -16z"/>
<path d="M2300 1019 c0 -5 5 -7 10 -4 6 3 10 8 10 11 0 2 -4 4 -10 4 -5 0 -10
-5 -10 -11z"/>
<path d="M2230 990 c-18 -11 -9 -21 21 -22 13 -1 32 -8 42 -16 9 -9 19 -13 22
-10 9 9 -7 38 -21 38 -8 0 -14 5 -14 10 0 13 -30 13 -50 0z"/>
<path d="M764 886 c-8 -22 1 -30 21 -19 15 9 15 11 1 22 -13 11 -17 10 -22 -3z"/>
<path d="M890 740 c-12 -8 -12 -10 3 -16 9 -3 14 -11 10 -18 -3 -6 0 -5 8 3
11 10 11 15 1 18 -6 3 -10 9 -6 14 7 11 3 11 -16 -1z"/>
<path d="M868 663 c7 -3 16 -2 19 1 4 3 -2 6 -13 5 -11 0 -14 -3 -6 -6z"/>
<path d="M2400 1330 c-8 -5 -11 -12 -7 -16 4 -4 13 -2 19 4 15 15 7 24 -12 12z"/>
<path d="M1535 1310 c4 -6 11 -8 16 -5 14 9 11 15 -7 15 -8 0 -12 -5 -9 -10z"/>
<path d="M2188 1290 c-7 -16 -16 -30 -20 -30 -5 0 -8 -16 -8 -35 0 -19 5 -35
10 -35 6 0 10 -7 10 -15 0 -17 16 -20 25 -5 3 6 1 10 -5 10 -7 0 -10 6 -7 13
2 6 9 11 15 10 5 -1 13 9 16 22 3 13 12 23 19 21 6 -1 9 -1 4 1 -4 3 -4 10 0
16 4 6 0 8 -10 4 -13 -5 -17 -1 -17 18 0 36 -17 39 -32 5z"/>
<path d="M1850 1280 c0 -5 7 -10 16 -10 8 0 12 5 9 10 -3 6 -10 10 -16 10 -5
0 -9 -4 -9 -10z"/>
<path d="M757 1263 c-12 -3 -16 -11 -12 -24 9 -27 -3 -43 -21 -28 -8 6 -17 10
-20 7 -8 -8 46 -68 61 -68 7 0 12 -7 11 -16 0 -9 5 -19 12 -21 6 -3 12 1 12 8
0 7 6 20 14 28 7 9 16 28 20 43 5 22 3 26 -9 22 -11 -5 -15 1 -15 19 0 14 -7
28 -16 31 -9 3 -16 5 -17 5 -1 -1 -10 -3 -20 -6z"/>
<path d="M2120 1261 c0 -5 7 -15 17 -22 15 -13 15 -12 4 9 -12 23 -21 28 -21
13z"/>
<path d="M720 1241 c0 -5 5 -13 10 -16 6 -3 10 -2 10 4 0 5 -4 13 -10 16 -5 3
-10 2 -10 -4z"/>
<path d="M1696 1173 c-10 -11 -7 -55 4 -48 20 13 30 43 16 48 -8 3 -17 3 -20
0z"/>
<path d="M1947 1031 c-2 -10 -1 -25 4 -32 6 -10 9 -4 9 19 0 36 -5 42 -13 13z"/>
<path d="M1975 1004 c3 -45 15 -74 15 -38 1 18 1 18 11 2 5 -10 15 -18 21 -18
6 0 1 12 -13 26 -13 14 -23 27 -21 30 6 11 1 44 -7 44 -5 0 -8 -20 -6 -46z"/>
<path d="M2025 1040 c3 -5 14 -10 23 -10 15 0 15 2 2 10 -20 13 -33 13 -25 0z"/>
<path d="M2110 979 c0 -5 -4 -7 -10 -4 -5 3 -10 1 -10 -5 0 -15 32 -9 38 8 2
6 -1 12 -7 12 -6 0 -11 -5 -11 -11z"/>
<path d="M1927 973 c-4 -3 -7 -11 -7 -17 0 -6 5 -5 12 2 6 6 9 14 7 17 -3 3
-9 2 -12 -2z"/>
<path d="M1896 925 c4 -8 8 -15 10 -15 2 0 4 7 4 15 0 8 -4 15 -10 15 -5 0 -7
-7 -4 -15z"/>
<path d="M2175 851 c-19 -8 -19 -8 2 -19 27 -15 36 -15 28 -2 -3 6 4 10 16 10
18 0 19 -2 9 -15 -14 -17 -3 -19 40 -5 23 7 23 8 3 9 -12 1 -23 5 -25 9 -5 13
-51 21 -73 13z"/>
<path d="M2075 580 c-3 -5 1 -10 9 -10 8 0 18 5 21 10 3 6 -1 10 -9 10 -8 0
-18 -4 -21 -10z"/>
<path d="M1488 553 c7 -3 16 -2 19 1 4 3 -2 6 -13 5 -11 0 -14 -3 -6 -6z"/>
<path d="M1526 434 c-8 -20 -3 -27 18 -22 12 2 13 6 2 21 -13 16 -14 16 -20 1z"/>
<path d="M1570 430 c0 -5 9 -10 20 -10 11 0 20 5 20 10 0 6 -9 10 -20 10 -11
0 -20 -4 -20 -10z"/>
<path d="M2237 62 c-10 -10 -17 -28 -17 -40 0 -18 6 -22 34 -22 27 0 34 4 38
24 5 24 -12 56 -29 56 -5 0 -17 -8 -26 -18z"/>
<path d="M2170 60 c0 -5 5 -10 11 -10 5 0 7 5 4 10 -3 6 -8 10 -11 10 -2 0 -4
-4 -4 -10z"/>
</g>
</svg>
