<?xml version="1.0" standalone="no"?>
<!DOCTYPE svg PUBLIC "-//W3C//DTD SVG 20010904//EN"
 "http://www.w3.org/TR/2001/REC-SVG-20010904/DTD/svg10.dtd">
<svg version="1.0" xmlns="http://www.w3.org/2000/svg"
 width="420.000000pt" height="230.000000pt" viewBox="0 0 420.000000 230.000000"
 preserveAspectRatio="xMidYMid meet">

<g transform="translate(0.000000,230.000000) scale(0.100000,-0.100000)"
fill="#000000" stroke="none">
<path d="M495 2292 c-85 -3 -115 -9 -115 -23 0 -7 12 -9 34 -5 39 8 57 -8 23
-19 -19 -7 -16 -9 17 -12 28 -3 47 2 76 21 l37 24 33 -29 c35 -32 52 -31 31 2
-11 19 -10 20 11 14 13 -4 23 -8 23 -9 0 -12 26 -42 39 -44 24 -5 23 63 -1 73
-20 9 -100 11 -208 7z"/>
<path d="M3675 2290 c-3 -6 1 -7 9 -4 18 7 21 14 7 14 -6 0 -13 -4 -16 -10z"/>
<path d="M3716 2291 c5 -6 20 -12 34 -15 14 -3 36 -8 50 -11 24 -6 25 -6 5 10
-11 9 -28 14 -37 11 -10 -2 -21 0 -24 5 -3 5 -13 9 -22 9 -10 0 -12 -3 -6 -9z"/>
<path d="M810 2260 c0 -17 29 -23 53 -12 20 10 19 11 -7 5 -20 -4 -27 -3 -22
6 4 6 1 11 -8 11 -9 0 -16 -5 -16 -10z"/>
<path d="M310 2242 c-8 -3 -21 -12 -29 -20 -13 -13 -12 -14 9 -7 37 11 54 22
44 27 -5 3 -16 3 -24 0z"/>
<path d="M730 2236 c0 -8 -3 -21 -6 -30 -4 -11 0 -16 14 -16 23 0 42 22 24 28
-7 2 -12 10 -12 18 0 8 -4 14 -10 14 -5 0 -10 -6 -10 -14z"/>
<path d="M160 2211 c0 -8 -66 -37 -107 -46 -41 -8 -44 -35 -5 -36 15 -1 59 -1
99 0 39 0 75 -4 78 -9 9 -15 63 -12 101 6 32 16 37 15 73 -1 21 -9 47 -15 57
-13 13 3 6 7 -18 12 -34 7 -38 12 -39 40 -1 17 -3 23 -6 14 -2 -10 -5 -18 -6
-18 -1 0 -17 -4 -35 -10 -28 -7 -33 -7 -28 5 3 8 0 15 -7 15 -7 0 -24 6 -39
14 -23 12 -62 24 -105 32 -7 1 -13 -1 -13 -5z"/>
<path d="M940 2204 c0 -8 -5 -12 -10 -9 -20 12 -60 -25 -89 -83 -42 -84 -55
-130 -42 -146 6 -7 8 -16 4 -19 -3 -4 -1 -7 5 -7 7 0 12 6 12 14 0 8 9 17 20
21 10 3 25 22 32 41 l12 34 11 -33 c10 -31 0 -61 -17 -50 -4 2 -5 -3 -2 -11 7
-19 16 -20 31 -5 8 8 13 8 18 0 3 -6 -1 -13 -9 -16 -9 -3 -23 -7 -30 -9 -9 -3
-18 3 -21 15 -4 10 -10 19 -15 19 -12 0 -28 -32 -23 -46 2 -5 -20 -16 -49 -23
-29 -8 -93 -28 -143 -46 -103 -37 -196 -59 -310 -76 -44 -6 -84 -15 -90 -19
-5 -4 -35 -10 -65 -11 -30 -2 -58 -8 -62 -14 -5 -6 -11 -6 -19 2 -10 10 -15 9
-23 -2 -9 -13 -15 -13 -37 -1 -26 13 -27 13 -26 -20 1 -19 5 -34 10 -34 4 0 6
10 2 23 -5 19 -4 20 7 6 7 -9 19 -14 26 -12 6 3 12 1 12 -4 0 -5 12 -9 27 -8
16 1 21 0 12 -2 -11 -3 -15 -11 -12 -24 5 -18 2 -20 -23 -18 -42 3 -64 -10
-64 -37 0 -22 4 -24 58 -26 31 0 68 -2 82 -4 57 -5 199 -6 207 -1 5 3 29 1 52
-4 24 -5 68 -12 97 -14 52 -4 99 -28 72 -37 -7 -3 -2 -7 10 -10 14 -4 20 -2
15 5 -4 6 2 8 15 5 13 -4 22 -1 22 5 0 7 8 -3 16 -20 17 -34 34 -43 34 -18 0
7 -8 19 -17 24 -26 15 -11 13 30 -4 37 -15 50 -35 40 -61 -5 -14 -3 -15 18 -4
16 9 24 10 27 2 4 -14 32 -3 32 13 0 7 8 19 17 26 15 13 16 11 10 -11 -4 -14
-7 -28 -7 -32 0 -5 -7 -8 -15 -8 -8 0 -15 -7 -15 -15 0 -10 9 -15 28 -14 l27
1 -25 8 c-15 5 -18 8 -8 9 9 1 22 3 30 6 16 6 43 -46 28 -55 -6 -4 -8 -14 -4
-23 4 -12 1 -17 -11 -17 -10 0 -15 5 -12 13 3 8 -1 14 -9 14 -8 0 -14 -6 -14
-14 0 -7 -11 -13 -25 -13 -14 0 -25 -6 -25 -12 0 -7 -12 0 -25 15 -14 15 -25
24 -25 18 0 -6 -8 -8 -17 -5 -14 5 -15 4 -4 -4 8 -6 10 -15 6 -22 -6 -10 -1
-11 19 -6 27 7 34 -2 15 -21 -7 -7 -6 -12 5 -16 10 -4 13 -1 9 9 -8 22 10 17
25 -7 7 -12 16 -18 19 -15 3 3 -2 12 -11 21 -16 17 -13 35 6 35 5 0 8 -7 4
-15 -4 -12 3 -15 29 -15 25 0 35 -4 35 -16 0 -8 -4 -12 -10 -9 -5 3 -10 1 -10
-5 0 -7 6 -10 13 -7 8 3 27 -6 43 -20 16 -13 22 -21 14 -17 -19 10 -140 14
-140 4 0 -11 46 -21 64 -14 9 3 16 1 16 -5 0 -6 -10 -11 -22 -11 -13 0 -43 -9
-67 -20 -49 -23 -55 -24 -46 -10 9 14 -19 12 -33 -2 -7 -7 -33 -11 -62 -9 -28
1 -50 -2 -50 -8 0 -5 13 -8 30 -6 40 5 35 -18 -5 -26 l-30 -6 33 -2 c19 0 31
-5 27 -11 -7 -11 -45 -13 -70 -4 -13 5 -14 8 -3 15 9 6 8 9 -7 9 -11 0 -27 -5
-35 -10 -12 -8 -11 -11 8 -16 21 -6 21 -7 5 -20 -21 -15 -53 -18 -53 -5 0 5 6
12 13 14 6 3 -3 3 -20 0 -22 -4 -33 -1 -33 6 0 7 6 11 12 10 25 -3 48 1 48 9
0 10 -111 9 -127 -1 -7 -5 -13 -4 -13 0 0 5 -9 9 -20 9 -26 0 -26 -12 0 -19
28 -7 25 -27 -3 -27 -13 0 -34 -11 -46 -24 -19 -21 -20 -24 -6 -30 9 -3 23 -6
32 -6 28 0 43 -28 43 -79 0 -48 -2 -51 -25 -51 -14 0 -25 -4 -25 -10 0 -5 -5
-10 -11 -10 -5 0 -7 5 -3 11 8 14 -14 29 -46 29 -22 1 -23 2 -7 11 9 5 17 17
17 24 0 18 -20 20 -21 3 0 -7 -5 0 -11 15 -7 19 -15 26 -25 23 -8 -3 -11 -1
-8 4 10 15 35 12 35 -5 0 -8 5 -15 11 -15 6 0 9 8 7 17 -2 14 -14 18 -51 19
-39 2 -45 0 -32 -10 13 -9 14 -19 7 -54 -8 -36 -8 -42 6 -42 21 0 4 -16 -23
-23 -11 -3 -2 -5 20 -6 28 -1 44 -7 53 -21 7 -12 18 -17 29 -14 16 5 15 3 -1
-10 -19 -16 -19 -16 2 -16 14 0 22 6 22 16 0 10 6 14 14 11 9 -4 13 -1 10 7
-3 9 8 12 40 11 48 -2 57 6 62 55 10 85 12 90 54 90 29 0 40 4 40 15 0 10 10
15 31 15 16 0 28 -4 24 -9 -3 -5 3 -12 12 -14 11 -3 5 -5 -12 -6 -16 -1 -35
-5 -41 -9 -7 -4 -15 -43 -19 -87 -7 -89 -11 -99 -31 -91 -9 3 -14 -1 -14 -12
0 -10 -3 -13 -8 -7 -8 12 -27 13 -38 3 -4 -4 -16 2 -26 15 -19 21 -20 21 -16
2 2 -14 -2 -19 -14 -17 -14 2 -18 -4 -18 -28 0 -16 -4 -30 -10 -30 -5 0 -10 5
-10 11 0 16 -31 38 -53 39 -12 0 -16 -4 -11 -12 6 -10 4 -10 -7 0 -21 19 -67
15 -79 -8 -6 -10 -16 -17 -24 -14 -7 3 -16 -2 -19 -10 -4 -10 -1 -16 7 -16 8
0 17 -7 20 -16 9 -23 7 -31 -3 -15 -6 9 -16 11 -27 6 -12 -4 -14 -9 -7 -12 7
-2 9 -11 6 -19 -10 -26 -23 6 -16 38 4 18 1 28 -6 28 -8 0 -7 6 3 16 11 11 13
20 6 33 -6 12 -4 35 4 69 8 28 11 54 7 58 -3 3 4 3 17 0 12 -4 22 -3 22 2 0 5
-9 12 -20 15 -25 6 -27 45 -3 63 10 7 15 16 10 20 -4 4 -14 -1 -21 -12 -13
-16 -18 -17 -35 -6 -18 10 -21 10 -21 -5 0 -13 -3 -14 -12 -5 -22 22 -48 14
-48 -13 0 -14 6 -25 13 -25 19 0 37 -34 26 -51 -5 -8 -9 -9 -9 -4 -1 6 -7 -8
-15 -30 -17 -47 -19 -85 -5 -85 6 0 10 -9 10 -20 0 -11 -5 -20 -11 -20 -8 0
-8 -5 1 -15 7 -8 8 -15 3 -15 -6 0 -11 -37 -12 -84 -2 -77 0 -85 21 -100 12
-9 17 -16 11 -16 -6 0 -14 -7 -17 -16 -5 -13 -3 -14 6 -6 16 12 32 -3 36 -35
3 -24 -21 -33 -33 -13 -14 23 -25 -4 -25 -60 0 -57 1 -60 28 -66 15 -4 36 -13
47 -20 19 -14 19 -14 -3 -14 -13 0 -20 4 -17 10 3 5 -1 10 -10 10 -11 0 -15
-5 -11 -16 4 -12 1 -14 -14 -9 -19 6 -20 2 -20 -69 0 -47 4 -76 11 -76 5 0 7
5 4 10 -10 16 11 11 25 -6 8 -8 9 -14 4 -13 -36 6 -44 -2 -44 -45 l0 -44 78 2
c42 2 86 6 96 11 14 6 17 5 12 -3 -5 -8 5 -12 32 -12 26 0 42 5 46 15 3 8 10
15 15 15 6 0 8 -7 5 -15 -5 -12 5 -15 55 -15 53 0 60 2 54 18 -7 16 -6 16 11
-1 16 -15 44 -17 286 -17 226 0 269 2 273 15 9 21 -7 27 -61 19 -37 -5 -51 -3
-61 10 -15 18 -51 22 -51 6 0 -6 -7 -6 -19 2 -23 14 -16 38 10 38 25 0 36 27
21 51 -7 10 -12 33 -12 51 0 25 -3 29 -10 18 -5 -8 -10 -25 -10 -36 0 -14 -8
-24 -22 -27 -27 -7 -38 7 -38 51 0 19 -4 31 -10 27 -6 -3 -7 1 -4 10 4 8 0 23
-7 32 -12 14 -12 16 0 8 11 -6 13 -4 7 11 -8 21 -9 24 -7 41 0 7 8 10 16 7 8
-4 15 -1 15 5 0 12 -13 13 -50 1 -14 -4 -19 -8 -12 -9 7 -1 12 -15 12 -33 0
-30 -1 -31 -15 -12 -21 27 -20 104 1 104 10 0 14 -6 11 -14 -4 -10 0 -12 14
-9 14 4 17 11 13 27 -4 18 0 22 22 24 21 2 24 -1 15 -12 -9 -11 -6 -12 14 -8
20 3 24 1 19 -12 -3 -9 -11 -16 -18 -17 -6 0 -2 -4 9 -9 15 -7 16 -9 4 -9 -36
-2 -62 -98 -30 -109 8 -3 11 0 7 7 -5 7 2 11 18 11 14 0 26 -5 26 -11 0 -6 9
-9 20 -6 17 4 20 0 20 -33 0 -44 22 -57 53 -32 11 10 17 11 17 4 0 -7 7 -12
15 -12 11 0 15 -12 15 -45 l0 -45 38 -1 c20 -1 41 -1 45 0 5 1 6 -3 2 -9 -3
-5 -1 -10 5 -10 6 0 13 7 16 15 7 17 34 21 34 4 0 -5 4 -7 10 -4 6 3 7 -1 4
-9 -4 -11 0 -16 10 -16 21 0 20 -10 -1 -26 -10 -7 -15 -16 -11 -20 4 -4 14 -1
23 6 8 7 15 8 15 2 0 -6 186 -10 531 -11 l532 -2 -6 38 c-4 21 -7 57 -7 81 0
24 -4 41 -9 37 -5 -3 -12 -1 -16 5 -3 5 -1 10 6 10 8 0 10 22 6 83 -4 45 -4
76 -1 70 4 -8 15 -11 30 -7 18 5 24 2 24 -11 0 -12 -6 -16 -20 -12 -24 6 -24
6 -8 -165 l12 -128 98 0 c72 0 97 3 96 12 -4 20 36 21 118 4 99 -21 254 -22
254 -2 0 8 -11 17 -24 20 -14 3 -26 16 -30 31 -4 16 -13 25 -27 25 -15 0 -19
-5 -14 -19 8 -28 -21 -35 -39 -9 -8 12 -13 25 -10 30 3 4 -2 5 -10 2 -9 -3
-16 -14 -17 -23 0 -12 -2 -12 -9 4 -7 16 -9 16 -9 4 -1 -14 -7 -16 -37 -9 -19
5 -37 10 -38 12 -24 41 -47 108 -36 108 6 0 10 7 10 15 0 32 35 2 46 -39 3
-14 12 -27 20 -27 8 -1 17 -2 22 -3 21 -6 138 -19 146 -18 4 2 13 -1 20 -6 13
-11 106 -25 154 -24 18 0 30 -4 27 -9 -4 -5 15 -10 42 -11 26 0 53 -2 58 -3 6
-2 28 -4 50 -5 l40 -3 -35 -7 c-21 -5 -27 -8 -13 -9 16 -1 20 -6 16 -21 -5
-20 0 -20 388 -20 355 0 391 1 372 15 -12 9 -26 15 -30 14 -4 -1 -16 1 -26 6
-11 4 -23 3 -30 -4 -15 -15 -27 -14 -27 4 0 8 -5 15 -10 15 -21 0 15 40 42 45
31 7 28 35 -4 35 -11 0 -33 11 -50 25 -16 14 -38 25 -48 25 -30 0 -33 19 -5
26 17 4 24 11 21 20 -10 26 12 64 36 64 13 0 30 5 38 10 11 7 3 9 -27 6 -34
-3 -40 -1 -30 9 7 7 17 11 23 8 6 -2 14 3 18 12 4 11 -3 19 -22 27 -27 11 -27
12 -4 16 13 2 21 9 19 15 -7 18 12 47 30 47 10 0 14 -6 10 -20 -5 -20 7 -28
17 -12 6 10 -21 52 -33 52 -4 0 -14 -11 -21 -25 -16 -29 -28 -31 -67 -8 -28
16 -30 16 -51 -5 -14 -14 -17 -22 -9 -22 7 0 18 5 24 11 12 12 53 3 53 -12 0
-5 -7 -9 -15 -9 -8 0 -12 -6 -9 -14 6 -17 -27 -31 -36 -16 -8 14 -20 -11 -20
-41 0 -18 -19 -25 -57 -20 -8 1 -10 -5 -7 -14 12 -32 -8 -13 -22 20 -8 19 -19
35 -25 35 -5 0 -7 5 -4 10 3 6 -3 10 -15 10 -12 0 -18 4 -15 10 3 6 -1 7 -9 4
-10 -4 -16 -1 -16 7 0 10 -3 10 -11 2 -13 -13 -39 -6 -56 15 -12 14 -13 14
-13 -2 0 -9 -4 -15 -9 -11 -5 3 -12 1 -16 -5 -3 -5 -15 -10 -26 -10 -11 0 -18
4 -14 10 3 5 13 6 23 3 11 -4 9 1 -7 15 -13 12 -19 22 -13 22 7 0 12 4 12 9 0
5 -9 7 -20 4 -27 -7 -25 11 3 25 23 11 75 10 115 -3 14 -5 22 -3 22 4 0 6 -7
11 -15 11 -8 0 -15 6 -15 14 0 11 -10 11 -62 -2 -35 -8 -71 -15 -80 -16 -9 0
-14 -5 -10 -11 3 -6 0 -5 -9 1 -8 6 -31 14 -51 18 -45 8 -49 29 -12 61 22 19
23 23 10 35 -13 10 -16 10 -16 -3 0 -26 -18 -29 -39 -5 -24 25 -27 40 -8 32 8
-3 19 2 26 9 9 12 8 16 -4 20 -8 4 -14 1 -12 -5 1 -6 -8 -11 -20 -13 -13 -1
-23 2 -23 7 0 4 5 8 10 8 6 0 10 5 10 10 0 7 -6 7 -19 0 -25 -13 -31 -13 -31
0 0 6 7 10 16 10 8 0 12 5 9 10 -8 13 -4 13 40 -6 21 -8 44 -13 51 -10 8 3 14
-1 14 -9 0 -8 7 -15 15 -15 10 0 15 -10 15 -31 0 -24 3 -30 16 -25 9 3 19 6
22 6 4 0 0 5 -8 10 -12 8 -12 10 -1 10 7 0 23 -10 34 -22 14 -16 21 -19 24
-10 4 10 8 10 19 1 8 -7 18 -9 21 -5 10 9 -14 24 -59 36 -26 7 -36 15 -32 25
3 8 16 13 27 12 16 -1 23 4 25 21 3 18 9 22 33 20 26 -2 43 -18 18 -18 -5 0
-8 -4 -5 -9 3 -4 18 -7 33 -5 l28 4 -29 -10 c-33 -10 -46 -6 -46 16 0 8 -4 14
-8 14 -5 0 -8 -10 -6 -22 1 -13 3 -28 3 -34 1 -11 40 -32 72 -38 58 -13 104
-46 63 -46 -8 0 -12 -5 -8 -11 4 -7 -1 -7 -16 1 -29 15 -41 3 -15 -17 11 -8
19 -18 18 -22 -3 -10 31 -10 37 0 8 11 60 19 60 10 0 -5 -9 -11 -20 -14 -31
-8 -24 -29 8 -25 15 2 26 8 25 14 -1 6 13 10 30 10 18 0 43 3 56 8 18 6 22 5
16 -4 -5 -9 -4 -11 4 -6 6 4 9 11 7 15 -3 4 -1 13 3 19 9 15 41 5 35 -11 -6
-17 12 -41 25 -33 6 4 11 16 11 27 0 18 2 19 15 6 8 -9 23 -13 33 -11 14 4 18
-2 20 -28 1 -18 5 -41 8 -50 4 -13 0 -15 -18 -12 l-23 5 23 -13 c14 -7 26 -8
30 -2 10 13 35 17 27 4 -5 -7 3 -8 22 -4 25 7 27 6 15 -9 -12 -14 -9 -18 17
-31 16 -9 38 -17 48 -19 10 -1 24 -6 31 -11 7 -4 27 -7 45 -6 50 3 55 0 22
-15 -20 -10 -24 -14 -12 -15 10 0 15 -5 12 -10 -4 -6 -10 -8 -14 -6 -4 3 -8
-5 -8 -16 -1 -12 -8 -25 -15 -29 -7 -4 -10 -11 -6 -14 3 -4 18 1 32 11 34 21
45 11 20 -18 -20 -23 -20 -23 30 -2 11 4 12 -2 7 -28 -4 -18 -12 -33 -17 -32
-5 1 -17 -7 -26 -17 -14 -15 -15 -19 -4 -19 8 0 18 5 21 10 4 6 11 7 17 4 5
-3 27 -6 49 -6 21 1 39 -1 39 -3 0 -2 -16 -9 -36 -15 -31 -11 -37 -10 -49 7
-13 17 -14 17 -9 -3 3 -12 1 -25 -5 -28 -6 -4 -11 -2 -11 3 0 6 -9 11 -21 11
-19 0 -18 -2 6 -24 18 -17 22 -26 13 -29 -7 -3 15 -6 50 -6 34 -1 62 3 62 7 0
4 12 8 28 7 21 0 28 5 30 24 3 20 0 23 -18 18 -17 -4 -19 -3 -10 8 7 8 8 20 4
26 -5 9 -2 10 9 6 15 -6 17 2 17 53 0 41 -4 60 -12 60 -9 0 -8 4 2 10 12 8 11
10 -7 10 -12 0 -25 -5 -28 -10 -9 -14 -95 -13 -95 1 0 6 -7 8 -17 5 -11 -4 -8
3 9 19 17 15 38 25 55 24 28 -1 28 -1 -4 -10 -33 -9 -42 -22 -24 -33 5 -4 11
-1 13 5 2 6 26 12 53 13 l50 1 3 124 4 124 -26 -5 c-14 -3 -23 -1 -20 3 8 13
-10 11 -24 -3 -9 -9 -12 -8 -12 6 0 15 6 17 40 11 33 -6 40 -4 40 9 0 9 -4 17
-10 17 -5 1 -14 3 -20 4 -5 1 -14 3 -20 4 -5 0 -10 6 -10 12 0 5 4 8 9 5 5 -4
12 0 14 6 4 10 6 10 6 1 1 -7 6 -13 12 -13 6 0 9 7 5 15 -3 8 -1 15 4 15 6 0
10 6 10 13 0 14 -53 15 -72 0 -19 -14 -61 -10 -65 7 -4 12 -2 12 5 2 7 -10 11
-10 22 2 7 9 16 13 21 10 5 -3 9 -2 9 3 0 4 18 7 40 7 38 -2 40 0 35 23 -2 14
-6 27 -8 30 -11 10 -63 9 -70 -1 -5 -6 -6 -1 -2 11 4 13 2 23 -4 23 -5 0 -17
3 -27 7 -11 4 -15 3 -10 -5 12 -20 -11 -21 -63 -2 -28 11 -58 20 -67 20 -25 0
-10 -25 17 -27 45 -3 71 -12 84 -30 11 -15 15 -15 29 -4 14 11 16 11 16 -2 0
-10 7 -15 20 -12 29 6 25 -13 -5 -21 -14 -3 -25 -9 -25 -13 0 -4 -8 -8 -17 -9
-41 -4 -55 -9 -62 -21 -6 -10 -9 -9 -14 2 -3 9 -14 13 -31 10 -16 -3 -38 3
-58 16 -18 11 -28 21 -22 21 5 0 15 -5 22 -12 8 -8 12 -9 12 -1 0 6 -6 13 -12
16 -9 3 -7 9 7 20 11 8 17 19 12 23 -4 4 -7 2 -7 -4 0 -7 -5 -12 -11 -12 -6 0
-17 -7 -25 -15 -8 -8 -21 -12 -28 -9 -8 3 -16 -2 -19 -13 -4 -16 -5 -16 -6 0
0 9 -7 17 -15 17 -8 0 -18 5 -22 12 -5 8 -2 9 9 5 10 -3 17 -2 17 3 0 5 6 7
13 4 15 -5 83 21 92 36 8 13 -44 3 -59 -11 -6 -5 -25 -9 -44 -9 -28 0 -32 2
-23 14 7 8 22 12 34 10 12 -2 17 -2 10 2 -7 3 -11 11 -9 17 1 7 1 9 -1 5 -7
-12 -51 -10 -58 2 -4 7 3 9 22 5 15 -3 22 -2 15 1 -10 5 -10 9 -1 20 8 10 8
14 0 14 -6 0 -11 -4 -11 -9 0 -19 -59 -22 -109 -5 -28 9 -51 19 -51 21 0 3 10
14 22 24 20 18 20 19 2 19 -18 1 -18 1 -1 14 15 12 29 11 95 -6 42 -11 80 -25
84 -31 6 -9 11 -8 18 3 5 8 10 11 10 5 0 -5 5 -3 10 5 6 10 10 11 10 3 0 -9
16 -13 46 -13 25 0 65 -5 90 -11 34 -9 48 -9 59 1 10 8 24 9 47 2 18 -5 43
-10 56 -10 l22 -1 -2 357 -3 357 -30 5 c-21 4 -31 11 -33 28 -4 27 -38 30 -45
5 -4 -17 -5 -17 -6 0 -1 23 -31 22 -31 -1 0 -16 -8 -17 -66 -14 -66 4 -145
-12 -209 -44 -27 -13 -36 -13 -85 2 -30 8 -65 22 -77 29 -18 12 -22 12 -26 1
-5 -12 -12 -12 -44 -1 -21 7 -56 14 -78 16 -22 1 -49 7 -60 13 -18 9 -16 11
20 19 22 5 68 10 103 11 44 1 62 5 62 14 0 7 13 18 29 23 29 10 34 39 8 39 -6
0 -25 13 -42 29 -31 31 -141 89 -207 110 -21 7 -40 17 -43 22 -4 5 -16 9 -28
9 -18 0 -19 2 -7 10 11 8 7 9 -15 4 -59 -12 -100 -27 -124 -45 -13 -11 -34
-19 -47 -19 -13 0 -24 -4 -24 -8 0 -12 -135 -35 -160 -27 -11 3 -20 15 -20 25
0 10 -2 24 -5 32 -4 10 12 13 74 13 44 0 85 5 90 10 7 7 -20 9 -81 8 -65 -2
-89 0 -81 8 12 12 196 14 216 3 7 -5 6 1 -4 16 -8 14 -38 36 -65 50 -39 20
-63 25 -120 24 -42 -1 -84 -7 -102 -17 -17 -8 -41 -13 -52 -10 -11 3 -32 2
-47 -2 l-28 -8 30 -8 c28 -7 27 -8 -9 -5 -33 2 -36 1 -20 -11 22 -16 21 -16
75 0 52 15 89 11 89 -9 0 -10 5 -12 13 -8 7 5 7 1 -2 -10 -11 -13 -12 -19 -2
-25 8 -5 10 -21 5 -47 -4 -30 -2 -43 10 -53 9 -7 16 -24 16 -37 0 -22 -4 -24
-42 -24 -32 0 -39 -3 -28 -10 22 -14 67 -12 83 4 12 12 26 13 78 5 147 -23
151 -23 147 -4 -4 25 26 42 46 26 9 -8 16 -22 16 -32 0 -23 29 -31 101 -27 51
3 54 4 51 28 l-3 25 16 -22 c9 -13 25 -23 35 -23 10 0 21 -4 24 -9 11 -17 -94
-28 -187 -19 -50 4 -102 6 -113 3 -13 -3 -27 2 -34 10 -14 17 -40 20 -40 5 0
-5 -13 -7 -30 -4 -35 7 -88 -15 -125 -52 -29 -29 -50 -65 -46 -79 1 -5 0 -7
-4 -3 -8 7 -82 -57 -96 -84 -7 -13 -5 -15 14 -11 12 3 29 10 37 16 8 5 -5 -9
-29 -32 -24 -23 -42 -43 -40 -45 2 -2 22 4 43 15 50 24 59 17 15 -11 l-34 -22
33 6 c20 3 31 2 27 -4 -3 -6 -8 -18 -10 -27 -2 -10 -7 -27 -11 -38 -7 -19 -7
-19 13 -2 11 9 25 34 31 55 11 35 71 162 71 152 2 -23 -34 -122 -64 -175 -20
-36 -33 -70 -30 -76 4 -6 -2 -13 -14 -16 -12 -3 -21 -11 -21 -19 0 -8 6 -11
16 -7 13 5 15 1 10 -15 -3 -12 -9 -31 -12 -42 -14 -51 39 7 74 80 18 37 28 49
30 37 6 -28 -32 -98 -77 -141 -32 -31 -38 -43 -29 -53 8 -10 8 -17 0 -25 -16
-16 -15 -41 1 -32 7 5 6 0 -3 -11 -14 -17 -13 -18 5 -11 13 4 6 -6 -18 -28
-20 -20 -42 -36 -47 -36 -6 0 -10 -8 -10 -17 1 -17 1 -17 11 0 5 9 17 17 24
17 13 0 15 -26 15 -150 0 -141 -1 -150 -19 -150 -11 0 -31 14 -45 31 -14 17
-30 27 -36 24 -17 -10 -57 45 -52 72 5 24 40 40 67 29 12 -4 15 5 15 47 0 46
-3 53 -20 54 -14 1 -20 -4 -20 -18 0 -10 7 -19 15 -19 8 0 15 -7 15 -16 0 -8
-4 -12 -10 -9 -6 4 -7 -1 -3 -12 5 -15 3 -16 -8 -5 -21 20 -56 15 -62 -9 -4
-16 -11 -20 -26 -16 -14 3 -18 1 -14 -9 3 -9 0 -13 -8 -10 -8 2 -26 7 -41 10
-17 4 -28 13 -28 22 0 13 7 15 35 11 19 -3 37 -2 40 4 3 5 20 13 38 18 32 9
32 9 5 10 -16 1 -28 6 -28 11 0 17 -39 11 -60 -10 -10 -10 -22 -15 -25 -11 -3
5 -15 7 -28 4 -13 -3 -7 3 15 16 21 12 46 21 57 21 10 0 33 14 51 30 18 17 26
30 19 30 -19 0 -35 -12 -41 -29 -4 -15 -108 -25 -108 -10 0 5 -12 4 -26 -1
-20 -8 -25 -7 -22 2 3 7 11 13 18 13 7 0 14 8 16 17 1 11 -3 15 -12 11 -8 -3
-21 0 -28 6 -9 8 -16 8 -20 2 -4 -5 2 -15 11 -20 15 -9 14 -10 -9 -7 -25 4
-27 3 -17 -15 5 -11 15 -17 22 -13 7 3 1 -4 -13 -16 -21 -18 -22 -21 -5 -15
49 18 55 18 49 1 -5 -14 -34 -22 -48 -13 -3 1 -16 -8 -29 -21 -24 -23 -25 -23
-38 -4 -15 20 -66 35 -75 21 -3 -5 -16 -6 -29 -3 -28 7 -65 -11 -65 -31 0 -8
-6 -12 -15 -9 -9 4 -16 -3 -20 -19 -8 -29 -43 -43 -52 -21 -3 8 -3 29 1 47 7
39 -8 71 -24 47 -8 -12 -13 -13 -30 -2 -17 10 -20 10 -20 -4 0 -8 4 -13 9 -9
5 3 12 1 16 -4 3 -6 11 -8 18 -5 8 3 14 -6 15 -27 2 -30 1 -31 -25 -24 -32 8
-55 13 -65 14 -5 1 -8 5 -8 11 0 5 7 7 15 4 8 -4 15 -1 15 4 0 6 -9 14 -20 17
-30 9 -28 62 3 67 22 3 39 48 18 48 -6 0 -11 -6 -11 -12 0 -9 -3 -8 -10 2 -11
17 -51 21 -62 5 -4 -5 -8 -38 -8 -72 0 -62 -31 -140 -51 -128 -4 3 -26 -6 -48
-19 -22 -14 -42 -21 -45 -15 -2 5 -3 4 -2 -3 2 -7 13 -12 24 -10 12 2 22 -1
22 -7 0 -6 -10 -9 -22 -7 -13 3 -31 5 -40 5 -22 1 -48 28 -42 44 6 17 -57 16
-75 -1 -7 -7 -30 -12 -50 -10 -29 2 -37 7 -39 27 -2 13 2 28 10 32 10 7 9 9
-4 9 -25 0 -36 -50 -14 -62 21 -12 21 -64 0 -85 -13 -14 -17 -14 -25 -2 -7 11
-9 9 -9 -8 0 -16 -4 -21 -16 -16 -8 3 -3 -7 13 -23 15 -16 34 -30 42 -30 10
-1 9 2 -3 11 -22 17 -20 34 5 43 27 10 81 3 73 -10 -3 -5 -12 -7 -20 -4 -8 3
-13 2 -13 -2 1 -4 0 -10 -1 -14 -1 -5 -3 -13 -4 -18 0 -6 -17 -18 -36 -28 -24
-12 -36 -25 -38 -43 -2 -14 -13 -37 -26 -52 -24 -28 -35 -25 -49 14 -4 12 0
15 19 11 24 -4 25 -3 21 41 -2 25 0 44 5 41 4 -3 8 4 8 14 0 11 -7 22 -15 26
-17 6 -21 36 -4 36 5 0 8 4 4 10 -3 5 -12 7 -20 3 -10 -3 -15 1 -15 15 0 24
-16 38 -23 20 -3 -8 -6 -6 -6 5 -1 9 6 17 14 17 8 0 15 5 15 11 0 6 -7 9 -15
5 -11 -4 -15 2 -15 24 0 20 -5 30 -15 30 -10 0 -15 -10 -15 -32 0 -26 -3 -30
-10 -18 -8 11 -10 1 -8 -35 2 -40 6 -49 19 -47 25 4 44 -24 29 -43 -11 -13
-10 -91 1 -134 4 -14 0 -15 -121 -24 -56 -4 -60 -3 -27 5 20 6 37 14 37 19 0
5 9 4 19 -3 13 -8 26 -9 40 -2 20 8 20 11 6 38 -8 16 -15 54 -15 87 0 41 -4
59 -12 59 -10 0 -12 20 -11 72 1 40 0 67 -3 61 -3 -7 -15 -13 -26 -13 -17 0
-18 -3 -8 -15 9 -11 9 -15 1 -15 -8 0 -11 -17 -10 -49 2 -33 -2 -54 -13 -64
-9 -9 -18 -13 -22 -10 -3 4 -6 -7 -6 -24 0 -39 -9 -47 -32 -26 -12 11 -18 30
-18 58 0 23 -2 44 -5 47 -3 3 -25 2 -50 -2 -42 -6 -44 -6 -30 10 9 10 29 16
48 16 l33 -2 1 53 1 52 -46 -6 c-26 -3 -52 -10 -58 -15 -16 -12 -11 -67 7 -80
11 -8 10 -9 -4 -4 -10 3 -21 6 -23 6 -2 0 -4 18 -4 40 0 22 4 40 8 40 5 0 9
15 9 33 0 17 -2 25 -4 17 -6 -26 -40 -42 -55 -27 -7 7 -22 18 -33 25 -12 7
-14 12 -6 12 11 0 11 3 1 15 -10 12 -7 15 14 21 15 3 26 13 26 23 0 9 9 22 20
29 11 7 19 22 19 35 l-2 22 -4 -22 c-4 -22 -23 -33 -23 -14 0 5 -8 12 -17 16
-12 4 -25 -2 -41 -21 -13 -15 -27 -23 -30 -18 -4 5 -14 8 -22 8 -8 -1 -30 -2
-47 -3 -29 -1 -33 -4 -33 -29 0 -25 -4 -29 -32 -30 -80 -3 -98 -6 -98 -17 0
-7 11 -11 25 -10 14 2 25 0 26 -3 0 -4 2 -14 4 -23 1 -9 -1 -23 -6 -30 -7 -11
-9 -11 -9 -1 0 8 -8 5 -22 -8 -20 -19 -23 -19 -32 -3 -6 11 -6 18 2 21 15 5
16 22 2 22 -6 0 -15 -11 -20 -25 -12 -31 -45 -35 -37 -4 3 13 1 19 -6 16 -7
-2 -12 -9 -11 -15 1 -7 2 -21 3 -31 1 -14 6 -18 21 -14 18 5 20 0 20 -53 0
-31 -3 -54 -7 -51 -3 4 -12 2 -18 -3 -9 -8 -11 2 -7 40 4 44 2 50 -14 49 -11
0 -14 -3 -6 -6 17 -7 16 -60 -2 -60 -10 0 -15 21 -19 76 -5 79 -1 103 14 80 6
-10 9 -10 9 -2 0 7 6 11 13 9 6 -1 9 -1 5 1 -14 8 -8 22 12 28 11 4 18 10 15
15 -3 5 -16 5 -30 0 -14 -5 -25 -6 -25 -2 0 13 24 39 40 45 11 3 9 7 -9 14
-19 7 -24 17 -25 51 -1 22 1 39 6 36 4 -3 8 2 8 10 0 9 7 16 15 16 19 0 21 56
3 63 -7 3 4 6 24 6 20 1 39 -4 41 -11 4 -10 6 -10 6 0 1 6 9 12 20 12 12 0 20
-9 24 -27 3 -16 2 -29 -3 -31 -4 -2 -6 -11 -3 -21 5 -19 53 -36 53 -20 0 5 -4
9 -10 9 -5 0 -14 18 -20 41 -6 22 -14 47 -17 55 -3 9 2 14 17 14 15 0 20 -5
17 -14 -4 -11 -1 -13 10 -9 11 4 14 2 9 -5 -4 -7 -3 -12 3 -12 5 0 16 -3 24
-6 9 -3 16 2 19 13 4 13 16 19 42 21 20 2 36 -2 36 -7 0 -21 -13 -41 -22 -35
-6 4 -5 10 3 15 10 6 10 9 2 9 -17 0 -22 -12 -25 -54 -2 -29 -7 -36 -19 -33
-9 3 -23 1 -30 -4 -11 -7 -10 -9 4 -9 11 0 17 -8 17 -25 0 -23 4 -25 41 -25
l40 0 -6 54 -7 53 41 7 c37 6 41 9 41 35 0 16 6 31 13 34 22 8 67 -4 67 -19 0
-8 5 -14 10 -14 10 0 7 40 -4 59 -3 5 1 14 9 21 18 15 83 22 90 10 3 -5 12 -7
19 -4 8 3 17 0 22 -7 4 -7 3 -10 -3 -6 -5 3 -23 2 -39 -3 l-29 -8 33 -1 c29
-1 32 -4 32 -31 0 -25 -4 -30 -25 -30 -20 0 -25 -5 -25 -24 0 -14 -5 -37 -10
-52 -8 -21 -8 -29 2 -36 7 -4 8 -8 2 -8 -5 0 -15 5 -21 11 -6 6 -21 12 -34 13
-13 2 -30 5 -38 7 -9 2 -16 -4 -18 -16 -3 -15 -2 -17 5 -6 7 9 16 11 28 6 11
-4 26 -9 34 -9 8 -1 14 -9 14 -19 -2 -16 12 -23 56 -28 8 -1 28 3 43 9 16 7
33 12 38 12 5 0 9 9 9 21 0 11 4 18 9 15 15 -10 43 6 37 20 -6 16 10 19 19 4
4 -6 11 -8 16 -5 5 3 6 -2 2 -11 -4 -11 -3 -15 4 -11 7 4 9 0 7 -10 -5 -23 15
-54 23 -35 2 6 9 12 15 12 5 0 17 7 25 16 13 12 13 15 2 14 -34 -5 -40 -1 -28
21 6 12 7 19 2 16 -5 -3 -15 -2 -22 3 -10 6 -8 9 8 15 11 3 21 12 21 19 0 8
14 16 30 20 23 4 30 11 30 29 0 13 3 45 6 71 6 44 5 46 -17 46 -21 1 -22 2 -6
11 24 14 37 3 37 -33 0 -27 3 -30 25 -26 14 3 28 1 31 -3 3 -5 20 -9 38 -9 19
0 39 -7 46 -15 10 -12 10 -15 -4 -15 -10 0 -16 -8 -16 -21 0 -20 4 -21 45 -17
28 4 46 1 49 -6 2 -6 5 3 5 20 1 17 -6 37 -14 44 -8 7 -15 9 -15 4 0 -5 -5 -2
-10 6 -7 11 -5 17 8 22 29 11 107 9 120 -4 9 -9 12 -7 12 10 0 13 -6 22 -15
22 -8 0 -15 6 -15 14 0 17 25 30 70 35 13 1 13 2 0 12 -12 8 -11 10 5 7 16 -3
19 -10 17 -36 l-4 -32 43 6 c34 6 40 5 34 -7 -5 -7 -12 -36 -17 -64 -4 -27
-10 -60 -14 -72 -4 -15 -2 -23 6 -23 17 0 45 -30 28 -31 -7 0 -24 -2 -37 -5
-33 -6 -51 12 -51 53 0 20 -4 32 -10 28 -5 -3 -10 -17 -10 -31 0 -15 -6 -24
-15 -24 -8 0 -15 -7 -15 -15 0 -8 -4 -15 -10 -15 -5 0 -10 -7 -10 -15 0 -25
-31 -31 -43 -9 -6 10 -12 24 -13 31 -1 6 -7 19 -13 30 -8 14 -11 7 -12 -37
l-2 -55 -6 48 c-8 61 -24 65 -29 7 -4 -57 -8 -70 -25 -70 -8 0 -13 14 -14 40
-2 47 -27 91 -36 65 -4 -8 -2 -15 4 -15 7 0 10 -21 7 -55 -1 -31 1 -57 7 -59
6 -2 26 3 45 11 19 8 55 15 80 15 25 0 54 6 65 11 11 6 28 10 38 8 11 -1 26 7
34 18 15 22 43 29 43 11 0 -5 10 -10 22 -10 21 0 21 0 2 16 -10 8 -14 13 -7 9
13 -6 83 19 83 31 0 3 -7 4 -15 0 -8 -3 -15 -1 -15 3 0 5 6 12 12 14 7 3 3 6
-9 6 -21 1 -35 31 -14 31 8 0 3 38 -13 86 -4 14 -1 28 9 38 21 21 10 38 -21
30 -14 -4 -24 -2 -24 5 0 6 7 11 15 11 8 0 15 4 15 9 0 11 14 9 50 -7 14 -6
19 -11 13 -11 -7 -1 -13 -5 -13 -11 0 -5 20 -10 44 -10 25 0 56 -4 70 -10 18
-7 25 -6 23 2 -1 7 27 12 83 14 46 2 90 6 97 8 17 7 17 -18 1 -31 -7 -6 -25
-13 -40 -17 -39 -9 -35 -23 12 -37 22 -7 40 -18 40 -26 0 -7 4 -13 8 -13 4 0
6 15 4 34 -2 18 1 43 7 54 6 10 7 23 3 27 -7 7 -8 12 -11 41 -1 10 -7 14 -16
10 -8 -3 -15 -2 -15 2 0 15 16 30 39 37 19 6 23 4 18 -7 -4 -11 1 -14 19 -10
13 2 24 8 24 13 0 5 5 9 11 9 6 0 8 -9 4 -20 -5 -16 -2 -20 14 -20 14 0 21 -6
21 -19 0 -11 5 -21 11 -23 5 -2 13 -22 16 -44 5 -39 4 -42 -26 -52 -18 -6 -30
-8 -27 -4 2 4 -2 15 -9 25 -11 16 -13 14 -17 -22 -3 -32 0 -41 14 -44 10 -3
16 -1 12 4 -3 5 -1 9 5 9 15 0 23 -19 28 -61 4 -33 2 -38 -11 -33 -12 4 -15 2
-11 -9 9 -22 54 -18 66 5 7 12 7 18 1 14 -5 -3 -12 5 -14 19 -6 30 1 31 35 5
22 -17 26 -18 31 -4 3 8 2 12 -4 9 -5 -3 -20 5 -32 18 -13 13 -30 27 -38 31
-8 3 8 4 37 2 62 -6 80 9 23 19 -22 4 -40 11 -40 17 0 5 10 6 23 3 14 -4 18
-3 9 3 -10 7 -9 12 4 23 15 12 17 12 9 0 -6 -11 -4 -13 9 -8 65 25 98 20 89
-13 -3 -12 -11 -19 -18 -16 -8 3 -18 -8 -25 -25 -7 -16 -17 -29 -22 -29 -5 0
-8 -6 -5 -12 2 -7 18 -13 36 -13 21 -1 30 3 27 12 -3 7 1 10 8 7 8 -3 16 4 19
15 3 12 2 21 -2 21 -4 0 -4 35 1 78 11 111 18 143 29 137 5 -4 10 6 10 22 1
15 2 40 3 54 2 38 23 73 58 93 27 16 108 127 108 148 0 17 -40 7 -56 -14 -12
-16 -15 -18 -10 -5 8 24 -17 32 -53 16 -23 -10 -27 -16 -19 -27 8 -9 8 -16 -1
-25 -9 -9 -14 -9 -20 1 -9 14 -32 13 -43 -3 -5 -6 -12 -4 -18 5 -7 12 -13 13
-28 3 -14 -8 -22 -9 -30 -1 -8 8 -13 7 -17 -4 -5 -13 -10 -12 -32 8 -14 13
-29 22 -32 19 -3 -4 1 -10 9 -15 17 -11 10 -13 -42 -10 -32 1 -38 -2 -44 -24
-8 -34 -37 -34 -72 1 -19 19 -38 27 -72 29 -25 2 -65 7 -90 10 -45 7 -45 7
-15 16 17 5 104 10 195 13 153 3 171 6 250 34 47 17 95 31 108 31 32 0 38 24
19 83 -11 35 -13 55 -6 68 13 25 -3 26 -111 13 -40 -5 -65 -2 -94 10 -47 20
-173 21 -209 3 -44 -23 -101 -82 -129 -133 -16 -30 -38 -55 -57 -64 -23 -12
-28 -19 -20 -27 14 -14 -50 -46 -94 -46 -18 0 -37 -6 -44 -13 -14 -14 -17 -25
-5 -21 4 1 8 -2 9 -8 1 -5 -6 -9 -15 -8 -10 1 -11 0 -4 -3 6 -3 12 -12 12 -20
0 -9 5 -12 11 -8 8 5 10 -1 5 -19 -6 -25 -6 -26 21 -11 16 7 46 14 68 13 22 0
33 -3 25 -6 -8 -4 -20 -13 -27 -22 -8 -11 -12 -12 -13 -3 0 21 -20 13 -20 -8
0 -20 5 -21 70 -16 39 3 68 1 65 -3 -2 -5 3 -11 13 -13 13 -4 17 1 17 20 0 29
25 48 50 38 16 -6 16 -8 3 -24 -9 -9 -13 -23 -11 -29 8 -22 22 -14 25 15 2 21
9 28 32 30 25 3 28 1 21 -15 -18 -42 -12 -82 9 -64 12 10 41 10 52 -1 9 -10
34 3 34 17 0 8 5 17 11 21 19 11 33 -15 30 -56 -1 -24 2 -40 8 -40 6 0 11 17
11 39 0 49 24 73 45 45 14 -18 14 -18 15 3 0 26 12 35 35 27 10 -4 15 -14 12
-25 -6 -24 11 -25 20 -2 6 15 7 15 14 -3 19 -47 5 -118 -16 -84 -14 23 -25 7
-25 -37 0 -62 -8 -51 -11 15 -4 82 -19 61 -19 -26 0 -74 -1 -79 -25 -90 -24
-11 -25 -10 -19 13 4 16 0 30 -10 40 -9 9 -16 23 -16 31 0 16 -17 19 -22 3 -2
-5 -11 -7 -21 -4 -11 5 -17 18 -17 41 0 24 -5 34 -15 34 -8 0 -15 -4 -15 -10
0 -17 -38 -11 -49 8 -9 15 -10 15 -11 -4 0 -17 -5 -20 -26 -16 -25 4 -26 7
-19 51 6 41 -1 55 -10 19 -8 -36 -18 -58 -25 -58 -5 0 -15 -3 -24 -6 -13 -5
-16 1 -17 27 -2 31 -2 31 -6 7 -6 -41 -62 -35 -64 6 -1 15 -3 16 -6 4 -5 -21
-32 -31 -48 -18 -9 8 -14 8 -17 0 -2 -7 -12 -6 -31 2 -24 11 -28 18 -25 46 2
17 0 32 -4 32 -4 0 -8 -16 -8 -36 0 -35 -1 -36 -31 -32 -19 3 -33 0 -36 -7 -5
-14 -43 -8 -43 5 0 10 -47 7 -56 -3 -4 -3 -21 0 -38 7 -18 7 -42 9 -56 5 -40
-11 -50 -10 -50 6 0 8 -14 18 -32 23 -29 8 -33 6 -36 -13 -2 -18 -8 -21 -28
-17 -20 4 -23 7 -12 14 10 7 10 11 1 15 -7 2 -13 11 -13 18 0 8 -8 19 -17 24
-10 6 -13 11 -7 11 5 0 14 -4 20 -10 6 -6 15 -6 24 0 13 8 12 10 -2 10 -19 0
-25 16 -8 22 7 2 5 11 -4 23 -15 20 -15 20 -16 -2 0 -27 -15 -29 -37 -7 -14
13 -14 17 -2 25 12 8 12 10 -1 19 -13 8 -12 10 2 10 10 0 17 5 15 12 -1 7 12
14 28 17 24 5 31 12 33 34 3 28 17 32 80 27 33 -2 28 26 -7 38 -16 6 -32 8
-35 5 -8 -8 -116 59 -116 72 0 5 -11 17 -24 25 -13 8 -63 43 -111 78 -64 47
-92 61 -107 56 -14 -4 -18 -2 -14 5 4 6 1 11 -7 11 -8 0 -29 3 -46 6 -26 6
-30 4 -25 -10 3 -9 1 -16 -5 -16 -6 0 -11 5 -11 11 0 5 -5 7 -12 3 -7 -5 -9
-2 -5 9 4 11 2 14 -8 11 -14 -6 -20 9 -45 112 -20 82 -95 168 -167 192 -28 9
-33 8 -33 -4z m-100 -178 c0 -3 -4 -8 -10 -11 -5 -3 -10 -1 -10 4 0 6 5 11 10
11 6 0 10 -2 10 -4z m16 -113 c-10 -10 -19 5 -10 18 6 11 8 11 12 0 2 -7 1
-15 -2 -18z m2099 -22 c8 -15 -13 -23 -38 -15 -21 7 -21 7 -2 15 27 10 33 10
40 0z m-1715 -41 c0 -5 -8 -10 -17 -10 -15 0 -16 2 -3 10 19 12 20 12 20 0z
m2010 -110 c0 -5 -5 -10 -11 -10 -5 0 -7 5 -4 10 3 6 8 10 11 10 2 0 4 -4 4
-10z m-5 -30 c3 -5 -1 -10 -9 -10 -9 0 -16 5 -16 10 0 6 4 10 9 10 6 0 13 -4
16 -10z m-2915 -10 c0 -5 -5 -10 -11 -10 -5 0 -7 5 -4 10 3 6 8 10 11 10 2 0
4 -4 4 -10z m216 -30 c8 0 13 4 9 9 -3 5 9 2 27 -6 18 -9 51 -16 75 -14 24 1
49 -2 56 -6 14 -9 19 -10 53 -12 32 -1 22 -21 -12 -21 -27 0 -32 -23 -10 -45
14 -14 142 -30 228 -29 36 1 45 -2 41 -14 -5 -12 -2 -12 18 0 13 7 27 18 31
23 5 6 8 5 8 -3 0 -7 6 -12 13 -11 26 5 67 -14 82 -37 14 -22 44 -36 30 -14
-3 6 -2 10 4 10 6 0 8 6 5 14 -6 17 26 30 40 16 7 -7 5 -10 -5 -10 -8 0 -15
-9 -16 -21 -1 -15 2 -19 14 -15 9 4 20 1 24 -6 5 -8 8 -2 6 16 -1 16 4 31 11
33 6 3 12 -2 12 -11 0 -14 10 -15 63 -10 34 3 69 11 77 18 8 8 21 11 28 9 7
-3 20 1 29 9 14 11 17 11 21 -1 3 -10 6 -10 12 -1 4 7 13 9 19 5 20 -12 -7
-33 -39 -31 -16 1 -31 -2 -33 -8 -2 -5 -20 -10 -40 -10 -20 -1 -37 -4 -37 -9
0 -4 -10 -5 -22 -2 -13 3 -32 -1 -43 -9 -12 -9 -15 -15 -7 -16 7 0 11 -4 7 -9
-6 -11 33 -26 42 -17 4 3 -1 6 -10 6 -9 0 -17 4 -17 9 0 11 143 21 177 12 16
-4 23 -10 16 -14 -6 -4 -23 -3 -36 2 -20 8 -25 7 -23 -4 1 -8 5 -17 9 -21 10
-10 -12 -44 -29 -44 -8 0 -12 5 -9 10 3 6 -1 13 -9 16 -14 6 -35 0 -90 -22
-15 -6 -18 -4 -13 8 4 12 1 14 -15 10 -11 -3 -24 1 -29 9 -6 10 -9 10 -9 2 0
-7 -6 -13 -14 -13 -21 0 -31 -21 -15 -31 12 -8 12 -11 -1 -19 -19 -13 -30 -13
-30 0 0 6 4 10 9 10 14 0 7 33 -11 54 -10 10 -15 23 -11 29 3 5 10 2 15 -7 5
-9 16 -16 24 -16 8 0 12 4 9 10 -4 6 6 7 25 4 17 -4 30 -2 30 4 0 12 -19 17
-130 33 -48 7 -89 18 -93 26 -4 7 -20 13 -35 13 -15 0 -65 3 -112 5 -59 4 -80
2 -70 -5 12 -8 11 -10 -7 -10 -12 0 -23 5 -25 12 -4 12 -88 37 -130 38 -15 0
-30 5 -33 10 -3 6 -17 10 -30 10 -13 0 -26 4 -29 9 -3 4 -17 7 -31 6 -14 -2
-25 0 -25 5 0 4 27 10 60 14 49 6 58 9 47 20 -7 8 -18 11 -27 6 -8 -4 -21 -5
-27 -3 -7 3 -13 0 -13 -6 0 -5 -9 -9 -20 -8 -11 1 -20 8 -20 17 0 12 -2 13 -9
1 -6 -9 -18 -12 -32 -8 -13 3 -29 2 -35 -4 -9 -7 -19 -7 -33 0 -11 6 -27 11
-37 11 -13 0 -14 -3 -4 -15 11 -13 5 -15 -46 -14 -33 1 -63 0 -69 -1 -5 -1
-21 -2 -35 -1 -36 2 -5 21 34 21 79 0 -26 18 -116 19 -38 1 -46 4 -44 19 2 13
18 19 76 26 44 6 79 5 89 0 9 -5 40 -7 69 -4 30 3 57 1 63 -5 8 -7 13 -6 16 3
7 17 33 15 33 -3 0 -24 31 -17 38 8 5 18 7 19 10 5 2 -10 10 -18 18 -18z m554
-15 c-6 -15 -13 -26 -16 -23 -2 3 0 18 6 33 6 15 13 26 16 23 2 -3 0 -18 -6
-33z m2181 -8 c-13 -13 -26 -3 -16 12 3 6 11 8 17 5 6 -4 6 -10 -1 -17z
m-2460 -30 c-8 -8 -11 -7 -11 4 0 20 13 34 18 19 3 -7 -1 -17 -7 -23z m2516
27 c-3 -3 -12 -4 -19 -1 -8 3 -5 6 6 6 11 1 17 -2 13 -5z m-3191 -29 c-32 -24
-84 -17 -59 8 3 4 22 7 42 7 34 -1 35 -2 17 -15z m44 -5 c0 -5 -4 -10 -10 -10
-5 0 -10 5 -10 10 0 6 5 10 10 10 6 0 10 -4 10 -10z m545 -80 c3 -5 1 -10 -4
-10 -6 0 -11 5 -11 10 0 6 2 10 4 10 3 0 8 -4 11 -10z m68 -17 c-7 -2 -19 -2
-25 0 -7 3 -2 5 12 5 14 0 19 -2 13 -5z m1687 -3 c0 -5 -4 -10 -10 -10 -5 0
-10 5 -10 10 0 6 5 10 10 10 6 0 10 -4 10 -10z m-1699 -63 c-8 -8 -11 -7 -11
6 0 9 -4 17 -10 17 -5 0 -10 -5 -10 -12 0 -6 -3 -9 -6 -6 -3 4 0 16 6 28 l12
22 15 -22 c11 -16 12 -25 4 -33z m2784 43 c25 -6 27 -8 12 -15 -22 -9 -107 3
-107 16 0 10 50 10 95 -1z m-2675 -30 c0 -5 -5 -10 -11 -10 -5 0 -7 5 -4 10 3
6 8 10 11 10 2 0 4 -4 4 -10z m106 -38 c-4 -3 -11 0 -16 8 -15 24 -11 33 6 15
9 -9 13 -19 10 -23z m134 28 c0 -5 -5 -10 -11 -10 -5 0 -7 5 -4 10 3 6 8 10
11 10 2 0 4 -4 4 -10z m-30 -14 c0 -3 -4 -8 -10 -11 -5 -3 -10 -1 -10 4 0 6 5
11 10 11 6 0 10 -2 10 -4z m420 -27 c-13 -24 -16 -24 -22 -1 -4 12 1 18 13 19
16 2 17 -2 9 -18z m-610 -15 c0 -8 -4 -14 -9 -14 -12 0 -32 26 -25 33 10 9 34
-4 34 -19z m22 -1 c-3 -16 -7 -22 -10 -15 -4 13 4 42 11 42 2 0 2 -12 -1 -27z
m218 17 c0 -5 -4 -10 -10 -10 -5 0 -10 5 -10 10 0 6 5 10 10 10 6 0 10 -4 10
-10z m-126 -21 c-3 -5 -13 -8 -22 -7 -11 2 -16 -3 -14 -14 2 -11 -3 -18 -12
-18 -8 0 -16 -8 -18 -17 -3 -15 -5 -14 -10 5 -3 12 -2 20 3 16 13 -8 11 10 -2
23 -19 19 -3 29 40 25 23 -2 38 -8 35 -13z m146 -9 c0 -5 -4 -10 -10 -10 -5 0
-10 5 -10 10 0 6 5 10 10 10 6 0 10 -4 10 -10z m195 -40 c-3 -5 -16 -10 -28
-11 -21 0 -21 -1 3 -11 14 -6 43 -12 65 -14 36 -4 38 -3 20 10 -23 17 -17 20
48 31 47 8 48 -7 1 -34 -19 -12 -33 -25 -29 -30 7 -12 75 -4 93 11 10 9 16 8
22 -2 11 -18 3 -30 -21 -30 -15 0 -19 -7 -19 -37 0 -40 -9 -41 -12 -1 -2 20
-8 25 -30 26 -18 0 -28 -4 -28 -14 0 -18 2 -18 -56 11 -29 15 -58 23 -71 20
-12 -3 -25 -1 -28 5 -3 5 -16 10 -27 10 -11 0 -27 8 -34 18 -13 16 -13 16 -14
0 0 -12 -8 -18 -22 -17 -13 0 -39 -2 -59 -6 -28 -6 -37 -4 -42 8 -4 11 3 18
26 22 18 4 37 11 42 15 6 4 30 6 55 4 78 -5 83 -5 89 4 12 18 67 30 56 12z
m-454 -13 c-1 -12 -15 -9 -19 4 -3 6 1 10 8 8 6 -3 11 -8 11 -12z m789 4 c0
-5 12 -13 27 -18 37 -13 16 -22 -24 -11 -23 6 -31 13 -27 23 7 16 24 21 24 6z
m-860 -31 c0 -5 -4 -10 -10 -10 -5 0 -10 5 -10 10 0 6 5 10 10 10 6 0 10 -4
10 -10z m785 0 c-4 -6 5 -10 19 -10 14 0 26 -4 26 -10 0 -9 -14 -14 -32 -11
-5 0 -7 -4 -5 -11 1 -7 -10 -13 -25 -13 -32 -1 -37 10 -9 18 14 3 18 11 14 26
-3 13 -1 21 6 21 7 0 9 -4 6 -10z m-705 -14 c0 -9 9 -14 20 -13 12 1 18 7 16
14 -4 9 1 10 19 3 16 -6 25 -6 25 0 0 6 13 10 28 10 34 0 71 -23 54 -34 -7 -4
-12 -2 -12 3 0 19 -20 12 -21 -6 0 -11 -3 -13 -6 -5 -7 17 -23 15 -23 -3 0
-11 -11 -15 -37 -15 -32 -1 -35 -2 -19 -11 13 -8 25 -8 43 0 32 15 33 14 33
-10 0 -11 -5 -17 -10 -14 -6 3 -13 -1 -17 -11 -4 -11 2 -23 18 -35 23 -17 23
-18 5 -32 -17 -12 -17 -14 -2 -20 23 -9 20 -30 -4 -24 -11 3 -20 0 -20 -6 0
-8 -3 -8 -8 1 -7 10 -15 10 -36 2 -34 -13 -49 -13 -41 0 3 6 -1 10 -9 10 -9 0
-16 -4 -16 -9 0 -25 -62 -19 -67 7 -3 11 42 18 87 14 27 -3 95 11 80 16 -8 3
-18 9 -21 15 -4 5 -21 10 -38 12 -31 2 -57 15 -31 15 10 0 10 3 0 14 -6 8 -19
12 -28 9 -13 -4 -14 -3 -3 5 7 5 22 7 32 5 10 -3 19 -1 20 3 0 5 2 17 4 27 4
19 -22 37 -42 30 -7 -3 -13 2 -13 11 0 10 6 13 15 10 11 -5 13 -2 9 10 -3 9
-1 16 5 16 6 0 11 -6 11 -14z m927 -40 c-1 -6 9 -10 26 -8 15 2 35 -2 45 -8
13 -8 -1 -10 -56 -6 -67 4 -115 16 -63 16 16 0 21 5 18 14 -4 10 0 12 13 9 11
-3 18 -10 17 -17z m360 -7 c4 -28 -20 -58 -32 -39 -3 5 -1 10 4 10 6 0 11 7
11 15 0 8 -5 15 -11 15 -5 0 -7 5 -3 11 5 8 -3 10 -24 7 -17 -2 -29 0 -26 4 3
5 22 8 42 6 30 -3 36 -7 39 -29z m81 8 c6 3 12 0 12 -6 0 -6 -4 -11 -10 -11
-16 0 -23 -2 -47 -11 -14 -5 -23 -5 -23 1 0 6 5 10 11 10 6 0 9 6 6 14 -7 19
15 28 28 11 6 -6 16 -10 23 -8z m-691 -37 c-3 -12 1 -23 10 -29 11 -6 14 -15
8 -27 -6 -16 -8 -16 -13 -4 -3 8 -16 25 -30 36 -27 24 -22 44 10 44 15 0 19
-5 15 -20z m173 10 c0 -5 10 -10 23 -11 21 -1 21 -1 -3 -8 -15 -4 -29 -3 -35
5 -5 6 -17 14 -25 17 -8 3 -3 6 13 6 15 1 27 -3 27 -9z m-56 -35 c3 -8 1 -15
-4 -15 -6 0 -10 7 -10 15 0 8 2 15 4 15 2 0 6 -7 10 -15z m31 5 c-3 -5 -1 -10
5 -10 6 0 8 -4 5 -10 -10 -17 -25 -11 -25 10 0 11 5 20 11 20 5 0 7 -4 4 -10z
m370 0 c-3 -5 -13 -10 -21 -10 -8 0 -14 5 -14 10 0 6 9 10 21 10 11 0 17 -4
14 -10z m-459 -14 c3 -8 4 -24 2 -36 -2 -17 -5 -14 -14 14 -10 34 0 53 12 22z
m-90 -37 c1 -26 1 -28 -3 -6 -5 33 -33 37 -34 5 l0 -23 -11 23 c-6 12 -16 23
-22 23 -6 1 3 5 19 9 44 11 50 7 51 -31z m1519 21 c-18 -19 -17 -20 3 -20 13
0 22 -6 22 -15 0 -14 -4 -17 -32 -19 -7 -1 -16 -5 -20 -11 -5 -6 -12 -4 -18 5
-7 11 -1 23 22 47 35 36 53 46 23 13z m-1637 -71 c4 -41 -11 -54 -50 -41 -29
10 -30 11 -5 8 25 -3 27 -1 27 31 0 40 23 42 28 2z m-647 1 c4 0 6 -7 3 -15
-4 -10 0 -15 10 -15 14 0 14 -2 4 -14 -13 -14 -35 -7 -67 22 -12 12 -12 15 0
23 8 5 20 7 27 4 8 -3 18 -5 23 -5z m509 -10 c0 -14 7 -20 23 -20 19 0 22 -5
22 -39 0 -47 -1 -49 -48 -56 -35 -6 -36 -5 -42 29 -8 39 -1 56 21 56 10 0 13
7 8 25 -4 15 -2 25 5 25 6 0 11 -9 11 -20z m1719 -22 c4 6 11 5 19 -4 7 -8 9
-14 3 -14 -5 0 -12 -11 -15 -25 -12 -47 -36 -17 -36 45 1 23 2 23 11 6 7 -11
14 -14 18 -8z m291 12 c0 -5 -12 -10 -26 -10 -21 0 -24 -4 -19 -20 5 -16 2
-20 -14 -20 -22 0 -41 27 -34 48 6 14 93 17 93 2z m400 0 c0 -5 -7 -7 -15 -4
-8 4 -15 2 -15 -4 0 -6 -10 -8 -22 -6 -13 2 -17 2 -10 -2 20 -9 14 -23 -8 -17
-12 3 -20 0 -20 -6 0 -7 -5 -9 -10 -6 -20 13 41 53 83 54 9 1 17 -3 17 -9z
m-520 -14 c0 -9 -7 -12 -20 -9 -19 5 -20 0 -20 -61 0 -52 3 -66 15 -66 8 0 15
-5 15 -11 0 -7 -21 -9 -60 -6 -33 3 -60 2 -60 -3 0 -4 -11 -6 -25 -5 -14 2
-25 -1 -25 -6 0 -5 -4 -9 -10 -9 -5 0 -10 14 -10 30 0 17 5 30 13 30 8 0 7 3
-3 10 -13 8 -12 11 5 24 21 16 36 19 74 16 21 -2 23 2 19 30 -5 35 7 44 63 48
19 2 29 -2 29 -12z m-568 -23 c-6 -3 -9 -10 -6 -15 4 -7 2 -8 -5 -4 -9 6 -9
11 0 22 6 8 15 12 18 8 3 -4 0 -9 -7 -11z m-1229 -10 c-7 -2 -19 -2 -25 0 -7
3 -2 5 12 5 14 0 19 -2 13 -5z m2207 -13 c0 -5 -7 -7 -15 -4 -8 4 -15 8 -15
10 0 2 7 4 15 4 8 0 15 -4 15 -10z m-60 -20 c0 -5 -7 -10 -16 -10 -8 0 -12 5
-9 10 3 6 10 10 16 10 5 0 9 -4 9 -10z m-661 -215 c3 -169 1 -205 -10 -205
-11 0 -14 35 -12 191 1 168 5 219 15 219 2 0 5 -92 7 -205z m601 194 c0 -5 -4
-7 -10 -4 -5 3 -10 1 -10 -5 0 -6 -4 -9 -9 -6 -5 3 -14 -1 -21 -9 -7 -8 -18
-15 -25 -15 -17 0 -34 -22 -39 -51 -3 -13 -5 -26 -6 -29 0 -3 -12 9 -25 25
-20 24 -25 26 -25 12 0 -10 -4 -16 -9 -13 -13 8 -1 46 14 46 13 0 30 -28 26
-43 -1 -5 3 -6 7 -3 5 3 8 17 6 31 -2 23 5 29 49 50 58 26 77 30 77 14z
m-2272 -50 c-10 -5 -18 -19 -18 -29 0 -26 -16 -26 -23 0 -5 21 15 39 43 39 12
0 11 -2 -2 -10z m2710 -14 c4 -4 -4 -5 -18 -2 -14 4 -35 7 -47 7 -13 0 -23 4
-23 9 0 10 77 -3 88 -14z m-1100 -122 l-1 -138 -9 112 c-9 99 -6 163 6 163 2
0 4 -62 4 -137z m412 127 c24 -15 7 -19 -20 -5 -15 8 -19 14 -10 14 8 1 22 -3
30 -9z m40 -12 c0 6 4 12 10 12 5 0 7 -7 3 -15 -7 -19 -25 -15 -31 6 -3 11 -2
11 7 -1 7 -10 11 -11 11 -2z m-433 -60 c-2 -13 -4 -5 -4 17 -1 22 1 32 4 23 2
-10 2 -28 0 -40z m663 26 c0 -9 10 -14 28 -14 23 -1 72 -29 72 -43 0 -6 -63 7
-115 24 -22 7 -46 12 -52 10 -7 -1 -13 2 -13 7 0 13 39 22 46 11 10 -17 26 -9
21 11 -3 11 -1 18 4 14 5 -3 9 -12 9 -20z m355 -2 c-3 -3 -11 0 -18 7 -9 10
-8 11 6 5 10 -3 15 -9 12 -12z m-1908 -18 c-3 -3 -12 -4 -19 -1 -8 3 -5 6 6 6
11 1 17 -2 13 -5z m-1000 -10 c-3 -3 -12 -4 -19 -1 -8 3 -5 6 6 6 11 1 17 -2
13 -5z m1835 -157 c2 -59 0 -107 -4 -107 -5 0 -7 62 -6 138 1 150 6 137 10
-31z m-1927 144 c-3 -5 3 -12 12 -14 14 -4 14 -5 -3 -6 -12 0 -24 6 -28 14 -3
9 0 15 10 15 8 0 13 -4 9 -9z m2687 -30 c11 -11 9 -12 -12 -6 -14 4 -32 7 -40
8 -9 1 -24 9 -33 18 -16 15 -14 15 28 5 25 -7 51 -18 57 -25z m-2734 -41 c-8
-25 -13 -28 -29 -20 -25 14 -24 27 1 35 11 3 20 11 20 16 0 6 4 8 9 4 6 -3 6
-17 -1 -35z m2029 -2 c-3 -7 -5 -2 -5 12 0 14 2 19 5 13 2 -7 2 -19 0 -25z
m-2393 -31 c-3 -64 -3 -65 -23 -60 -27 7 -24 73 4 84 11 4 20 8 20 8 0 1 -1
-14 -1 -32z m1854 8 c-3 -3 -9 2 -12 12 -6 14 -5 15 5 6 7 -7 10 -15 7 -18z
m-2111 9 c-3 -3 -12 -4 -19 -1 -8 3 -5 6 6 6 11 1 17 -2 13 -5z m201 -29 c2
-17 -2 -33 -11 -40 -8 -6 -17 -19 -19 -30 -2 -11 -10 -19 -16 -17 -14 2 -16
-14 -3 -23 5 -3 12 -1 16 5 3 5 11 10 16 10 6 0 7 -5 3 -12 -4 -7 -8 -45 -9
-85 -1 -42 -7 -78 -15 -87 -10 -13 -10 -19 0 -31 11 -13 10 -18 -6 -29 -24
-18 -34 -12 -34 20 0 14 -4 22 -10 19 -5 -3 -10 -2 -10 4 0 5 10 13 21 16 21
7 21 11 14 89 -4 44 -7 89 -7 98 1 9 -5 19 -11 21 -7 2 -2 2 10 1 12 -2 23 2
25 8 6 17 -16 38 -39 39 -10 1 -4 6 15 11 21 7 32 17 32 30 0 33 34 17 38 -17z
m107 15 c-3 -5 -11 -10 -16 -10 -6 0 -7 5 -4 10 3 6 11 10 16 10 6 0 7 -4 4
-10z m440 0 c4 -6 -7 -10 -27 -9 -31 1 -32 1 -8 9 14 4 26 8 27 9 1 1 5 -3 8
-9z m1453 4 c33 -9 27 -20 -13 -22 -27 -2 -33 1 -29 13 7 17 9 17 42 9z m449
-116 c-2 -24 -4 -5 -4 42 0 47 2 66 4 43 2 -24 2 -62 0 -85z m-1977 102 c0 -5
-5 -10 -11 -10 -5 0 -7 5 -4 10 3 6 8 10 11 10 2 0 4 -4 4 -10z m1305 -8 c-3
-3 -11 0 -18 7 -9 10 -8 11 6 5 10 -3 15 -9 12 -12z m-1905 4 c0 -2 3 -11 6
-20 4 -11 0 -16 -14 -16 -11 0 -23 -6 -25 -12 -4 -8 -6 -7 -6 4 -1 26 10 48
25 48 8 0 14 -2 14 -4z m497 -2 c-3 -3 -12 -4 -19 -1 -8 3 -5 6 6 6 11 1 17
-2 13 -5z m1696 -8 c4 -10 1 -13 -9 -9 -7 3 -14 9 -14 14 0 14 17 10 23 -5z
m664 8 c-3 -3 -12 -4 -19 -1 -8 3 -5 6 6 6 11 1 17 -2 13 -5z m495 -21 c-8
-13 -16 -23 -17 -23 -1 0 -5 10 -7 23 -3 17 0 22 17 22 21 0 21 -2 7 -22z
m-2765 9 c7 -4 12 -30 11 -59 0 -58 7 -77 28 -69 8 3 14 -1 14 -9 0 -11 -11
-15 -37 -15 -42 0 -57 -7 -66 -30 -3 -9 -6 -3 -6 13 -1 15 -6 36 -12 46 -15
23 -4 71 16 71 9 0 18 13 22 30 6 31 10 35 30 22z m1433 -1 c0 -6 -4 -13 -10
-16 -5 -3 -10 1 -10 9 0 9 5 16 10 16 6 0 10 -4 10 -9z m1417 3 c-3 -3 -12 -4
-19 -1 -8 3 -5 6 6 6 11 1 17 -2 13 -5z m53 -9 c0 -8 -6 -15 -14 -15 -20 0
-29 17 -14 23 22 9 28 7 28 -8z m-3545 -5 c7 -11 -39 -25 -55 -15 -5 3 -8 11
-5 16 8 12 52 12 60 -1z m-145 -10 c0 -5 -7 -10 -15 -10 -8 0 -15 5 -15 10 0
6 7 10 15 10 8 0 15 -4 15 -10z m741 -13 c-13 -13 -26 -3 -16 12 3 6 11 8 17
5 6 -4 6 -10 -1 -17z m1549 14 c0 -5 -8 -12 -17 -16 -28 -12 -44 -14 -37 -4 3
5 12 9 20 9 8 0 14 5 14 10 0 6 5 10 10 10 6 0 10 -4 10 -9z m1204 -12 c-7
-13 -54 -11 -54 2 0 5 5 7 10 4 6 -3 10 -2 10 3 0 6 9 8 20 5 11 -3 17 -9 14
-14z m-1714 -3 c0 -3 -4 -8 -10 -11 -5 -3 -10 -1 -10 4 0 6 5 11 10 11 6 0 10
-2 10 -4z m598 -10 c-7 -8 -15 -12 -17 -11 -5 6 10 25 20 25 5 0 4 -6 -3 -14z
m-2228 -6 c0 -5 -7 -7 -15 -4 -8 4 -15 8 -15 10 0 2 7 4 15 4 8 0 15 -4 15
-10z m2009 -27 c-1 -33 -2 -35 -8 -13 -4 14 -6 31 -3 38 8 22 12 13 11 -25z
m51 12 c0 -8 -6 -12 -14 -9 -8 3 -12 12 -9 20 6 17 23 9 23 -11z m345 15 c-3
-5 -12 -10 -18 -10 -7 0 -6 4 3 10 19 12 23 12 15 0z m-87 -20 c3 -7 0 -10 -6
-6 -7 4 -21 2 -33 -4 -19 -10 -20 -10 -10 8 12 22 42 23 49 2z m289 -32 c-2
-13 -4 -5 -4 17 -1 22 1 32 4 23 2 -10 2 -28 0 -40z m-2397 27 c0 -9 -6 -12
-16 -8 -13 5 -13 7 -2 14 17 11 18 11 18 -6z m3060 5 c-18 -12 -30 -13 -30 -2
0 4 10 9 22 9 18 2 20 0 8 -7z m-920 -10 c0 -5 -2 -10 -4 -10 -3 0 -8 5 -11
10 -3 6 -1 10 4 10 6 0 11 -4 11 -10z m337 -22 c-3 -7 -5 -2 -5 12 0 14 2 19
5 13 2 -7 2 -19 0 -25z m502 -7 c-6 -2 -18 4 -27 13 -15 15 -15 15 10 4 15 -7
23 -15 17 -17z m-2414 -27 c1 -23 -4 -34 -13 -34 -9 0 -12 6 -8 16 3 9 6 27 6
41 0 15 3 23 7 19 5 -4 8 -23 8 -42z m1209 31 c-4 -8 -8 -15 -10 -15 -2 0 -4
7 -4 15 0 8 4 15 10 15 5 0 7 -7 4 -15z m1251 -23 c-8 -9 -25 20 -18 31 3 5
10 2 15 -7 6 -10 7 -20 3 -24z m180 28 c-3 -5 -10 -10 -16 -10 -5 0 -9 5 -9
10 0 6 7 10 16 10 8 0 12 -4 9 -10z m-2005 -15 c-7 -9 -15 -13 -17 -11 -7 7 7
26 19 26 6 0 6 -6 -2 -15z m670 -13 c-7 -3 -19 3 -28 13 -16 15 -15 16 12 4
15 -7 23 -15 16 -17z m268 -18 c3 -33 -1 -30 -16 15 -9 27 -9 31 1 23 7 -6 14
-23 15 -38z m-2420 29 c-24 -6 -23 -28 3 -52 22 -20 18 -41 -7 -41 -23 0 -15
-62 9 -66 9 -1 17 2 17 7 0 16 58 10 64 -7 5 -14 4 -15 -8 -5 -12 10 -14 9 -9
-7 7 -30 -47 -39 -87 -16 -21 13 -26 20 -17 26 9 6 9 10 1 16 -7 4 -14 16 -17
27 -4 18 -5 18 -6 -2 0 -13 -5 -23 -10 -23 -5 0 -7 8 -4 19 2 10 -3 25 -11 34
-12 11 -13 17 -3 20 6 3 2 6 -10 6 -17 1 -23 7 -23 25 0 24 24 41 42 30 5 -3
8 -15 5 -25 -4 -15 0 -19 19 -19 21 0 23 3 18 30 -6 28 -5 30 22 29 17 -1 22
-3 12 -6z m3447 -3 c-4 -6 7 -13 24 -16 37 -8 42 -26 5 -20 -37 7 -59 27 -42
37 17 11 20 11 13 -1z m-3145 -25 c0 -14 -4 -25 -9 -25 -4 0 -6 11 -3 25 2 14
6 25 8 25 2 0 4 -11 4 -25z m254 18 c-5 -5 -12 -12 -16 -18 -4 -6 -8 -2 -8 8
0 9 7 17 17 17 9 0 12 -3 7 -7z m1679 -2 c10 -1 16 -5 13 -10 -3 -4 -17 -7
-31 -6 -18 2 -25 -2 -25 -13 -1 -15 -2 -15 -11 1 -13 22 -4 36 19 32 9 -2 25
-4 35 -4z m-188 -11 c3 -5 1 -10 -4 -10 -6 0 -11 5 -11 10 0 6 2 10 4 10 3 0
8 -4 11 -10z m1595 6 c0 -3 -4 -8 -10 -11 -5 -3 -10 -1 -10 4 0 6 5 11 10 11
6 0 10 -2 10 -4z m-3550 -63 c0 -10 -6 -13 -16 -9 -9 3 -20 6 -25 6 -11 0 -12
43 -2 54 10 9 43 -31 43 -51z m15 47 c3 -5 2 -10 -4 -10 -5 0 -13 5 -16 10 -3
6 -2 10 4 10 5 0 13 -4 16 -10z m325 6 c0 -3 -4 -8 -10 -11 -5 -3 -10 -1 -10
4 0 6 5 11 10 11 6 0 10 -2 10 -4z m1716 -32 c5 -27 4 -28 -9 -9 -8 10 -12 25
-10 33 7 17 13 10 19 -24z m176 -22 c-17 -5 -52 17 -52 34 0 12 6 11 32 -7 17
-13 26 -25 20 -27z m1072 27 c-8 -13 -21 -11 -27 5 -4 10 0 12 14 9 10 -3 16
-9 13 -14z m-28 -38 c-6 -2 -12 1 -14 7 -2 6 -10 8 -18 5 -8 -3 -14 -1 -14 5
0 6 5 12 12 14 14 5 48 -25 34 -31z m204 19 c0 -5 -7 -7 -15 -4 -8 4 -15 8
-15 10 0 2 7 4 15 4 8 0 15 -4 15 -10z m-1150 -26 c0 -8 -4 -12 -10 -9 -5 3
-10 13 -10 21 0 8 5 12 10 9 6 -3 10 -13 10 -21z m1230 7 c0 -3 12 -7 26 -7
27 -2 65 -30 63 -48 0 -6 -3 -6 -6 2 -2 6 -11 12 -19 12 -8 0 -14 4 -14 9 0 5
-14 3 -31 -6 -16 -8 -33 -12 -37 -9 -3 4 4 9 16 13 l23 6 -22 11 c-26 13 -39
39 -15 30 9 -3 16 -9 16 -13z m-2860 5 c0 -3 -4 -8 -10 -11 -5 -3 -10 -1 -10
4 0 6 5 11 10 11 6 0 10 -2 10 -4z m180 -6 c15 -8 18 -15 10 -34 -5 -13 -6
-26 -4 -29 3 -3 1 -8 -5 -12 -6 -3 -11 -1 -11 5 0 6 -4 9 -8 6 -5 -3 -15 10
-24 29 -11 24 -12 36 -4 39 18 7 26 7 46 -4z m2815 -10 c-3 -5 -12 -10 -18
-10 -7 0 -6 4 3 10 19 12 23 12 15 0z m160 0 c3 -5 1 -10 -4 -10 -6 0 -11 5
-11 10 0 6 2 10 4 10 3 0 8 -4 11 -10z m-3157 -31 c-5 -3 -9 -9 -9 -13 3 -22
-1 -27 -19 -21 -14 5 -20 2 -20 -10 0 -9 5 -13 10 -10 6 3 10 1 10 -4 0 -6 -7
-11 -15 -11 -11 0 -14 10 -13 40 1 21 5 37 10 34 4 -3 8 1 8 9 0 12 4 13 24 4
14 -7 20 -15 14 -18z m347 21 c3 -5 -1 -10 -9 -10 -9 0 -16 -7 -16 -15 0 -15
-19 -22 -21 -7 0 4 -2 15 -4 25 -2 12 3 17 20 17 13 0 27 -4 30 -10z m1145
-10 c0 -11 -4 -20 -9 -20 -5 0 -7 9 -4 20 3 11 7 20 9 20 2 0 4 -9 4 -20z
m720 -17 c0 -7 -9 -13 -20 -13 -15 0 -20 7 -20 25 0 23 2 24 20 13 11 -7 20
-18 20 -25z m-664 0 c-10 -10 -19 5 -10 18 6 11 8 11 12 0 2 -7 1 -15 -2 -18z
m1539 17 c3 -5 1 -10 -4 -10 -6 0 -11 5 -11 10 0 6 2 10 4 10 3 0 8 -4 11 -10z
m-2865 -24 c0 -14 -4 -28 -10 -31 -6 -3 -7 1 -4 9 3 9 1 16 -5 16 -6 0 -8 7
-5 15 9 23 24 18 24 -9z m2900 14 c0 -5 -5 -10 -11 -10 -5 0 -7 5 -4 10 3 6 8
10 11 10 2 0 4 -4 4 -10z m30 0 c0 -5 -5 -10 -11 -10 -5 0 -7 5 -4 10 3 6 8
10 11 10 2 0 4 -4 4 -10z m37 4 c-3 -3 -12 -4 -19 -1 -8 3 -5 6 6 6 11 1 17
-2 13 -5z m-3831 -19 c-8 -8 -22 -15 -30 -15 -10 0 -13 6 -10 15 4 8 17 15 31
15 22 0 23 -2 9 -15z m558 7 c-6 -4 -15 -22 -19 -40 -8 -40 -25 -32 -25 11 0
28 4 33 28 35 15 1 22 -2 16 -6z m449 -13 c-3 -11 -10 -22 -16 -26 -6 -3 -7
-1 -3 5 4 7 2 12 -3 12 -19 0 -12 26 8 27 14 1 17 -3 14 -18z m1071 -10 c-3
-5 -14 -3 -24 3 -13 9 -16 14 -7 20 13 8 39 -10 31 -23z m824 14 c2 -8 -5 -13
-17 -13 -12 0 -21 6 -21 16 0 18 31 15 38 -3z m-2743 -13 c3 -6 -1 -7 -9 -4
-18 7 -21 14 -7 14 6 0 13 -4 16 -10z m615 0 c-10 -6 -11 -10 -2 -10 6 0 12
-7 12 -16 0 -14 -3 -14 -15 -4 -20 17 -19 40 3 40 14 0 15 -2 2 -10z m130 -5
c0 -8 -4 -15 -10 -15 -5 0 -10 7 -10 15 0 8 5 15 10 15 6 0 10 -7 10 -15z
m1088 -10 c-34 -23 -88 -31 -88 -13 0 4 5 8 11 8 5 0 7 5 3 12 -4 7 -3 8 5 4
6 -4 9 -12 6 -17 -4 -5 -1 -9 4 -9 6 0 11 4 11 10 0 5 7 7 15 4 8 -4 15 -1 15
4 0 9 18 18 45 21 5 0 -7 -10 -27 -24z m166 -27 c-4 -29 -8 -56 -10 -59 -7
-12 23 -29 40 -23 9 3 16 1 16 -6 0 -6 4 -9 9 -6 9 6 5 82 -5 98 -3 4 2 8 11
8 9 0 14 4 11 9 -9 14 48 30 67 19 22 -12 22 -46 0 -70 -14 -15 -15 -21 -4
-27 24 -15 -9 -51 -46 -51 -17 0 -34 -6 -37 -12 -4 -10 -7 -10 -12 -1 -3 7
-15 9 -32 4 -39 -10 -61 -3 -55 18 3 11 -2 21 -13 25 -18 7 -37 -11 -28 -26 3
-4 -4 -8 -14 -8 -17 0 -20 7 -18 48 1 44 3 47 29 50 15 2 25 8 22 13 -6 9 7
13 31 10 7 -1 14 8 17 19 3 11 10 20 16 20 8 0 9 -17 5 -52z m43 30 c-3 -8 -6
-5 -6 6 -1 11 2 17 5 13 3 -3 4 -12 1 -19z m-2068 3 c20 -13 6 -61 -18 -61
-22 0 -36 51 -18 62 15 10 19 10 36 -1z m596 -1 c4 -6 -7 -10 -27 -9 -31 1
-32 1 -8 9 14 4 26 8 27 9 1 1 5 -3 8 -9z m-61 -15 c12 -9 15 -15 7 -15 -9 0
-12 -11 -9 -35 2 -22 -1 -36 -9 -39 -9 -4 -13 6 -13 34 0 22 -4 40 -10 40 -5
0 -7 7 -4 15 7 18 14 18 38 0z m-354 -19 c0 -17 -7 -25 -25 -28 -21 -4 -25 -1
-25 18 0 20 10 28 43 33 4 0 7 -10 7 -23z m3565 4 c3 -5 1 -10 -4 -10 -6 0
-11 5 -11 10 0 6 2 10 4 10 3 0 8 -4 11 -10z m-862 -63 c-10 -17 -20 4 -15 30
l6 28 6 -25 c4 -14 5 -28 3 -33z m-2266 21 c-3 -8 -6 -5 -6 6 -1 11 2 17 5 13
3 -3 4 -12 1 -19z m173 5 c0 -21 28 -53 43 -49 7 2 9 1 5 -1 -4 -3 -3 -16 3
-29 8 -23 7 -25 -13 -22 -13 2 -22 9 -20 16 1 6 -2 12 -8 12 -5 0 -10 5 -10
11 0 5 5 7 12 3 6 -4 8 -3 5 3 -11 18 -47 23 -47 7 0 -8 4 -14 8 -14 5 0 9 -6
9 -14 0 -8 -6 -12 -14 -9 -22 9 -15 -27 10 -48 l22 -18 -22 -1 c-13 0 -23 -4
-23 -10 0 -6 -9 -6 -25 0 -15 6 -25 6 -25 0 0 -5 9 -12 20 -15 15 -5 20 -15
20 -41 0 -21 -5 -34 -13 -34 -9 0 -12 11 -9 35 5 45 -15 47 -21 3 -3 -18 -4
-2 -3 36 1 50 -3 70 -12 74 -9 3 -13 -3 -10 -18 2 -13 -3 -25 -11 -28 -10 -3
-12 0 -8 12 4 9 2 16 -3 16 -6 0 -10 7 -10 15 0 8 5 15 11 15 5 0 8 4 5 9 -3
5 1 12 10 15 8 3 12 2 9 -4 -3 -6 1 -7 9 -4 9 3 16 12 16 19 0 7 7 16 16 19
10 4 14 14 11 26 -3 12 1 20 12 23 35 10 51 7 51 -10z m-1111 -21 c-10 -2 -20
-13 -24 -25 -7 -21 -7 -21 -18 6 -8 19 -16 26 -27 22 -12 -5 -13 -4 -2 7 11
11 16 10 28 -6 14 -19 14 -19 14 2 0 21 2 21 23 10 18 -10 19 -13 6 -16z m221
14 c-21 -20 -52 -24 -58 -7 -3 9 1 11 14 7 11 -3 26 -1 34 4 22 14 26 12 10
-4z m47 8 c-3 -3 -12 -4 -19 -1 -8 3 -5 6 6 6 11 1 17 -2 13 -5z m3054 -12
c-7 -2 -18 1 -23 6 -8 8 -4 9 13 5 13 -4 18 -8 10 -11z m464 8 c3 -6 -1 -7 -9
-4 -18 7 -21 14 -7 14 6 0 13 -4 16 -10z m172 4 c-3 -3 -12 -4 -19 -1 -8 3 -5
6 6 6 11 1 17 -2 13 -5z m43 2 c0 -3 -4 -8 -10 -11 -5 -3 -10 -1 -10 4 0 6 5
11 10 11 6 0 10 -2 10 -4z m-3897 -20 c3 -8 14 -12 24 -10 10 3 31 -1 46 -9
22 -12 25 -16 12 -21 -9 -3 -14 -10 -10 -15 3 -5 1 -12 -5 -16 -6 -4 -11 6
-11 22 l-2 28 -4 -26 c-4 -25 -43 -50 -43 -28 0 5 4 9 9 9 5 0 7 9 4 20 -4 15
-9 18 -18 10 -12 -10 -25 -4 -25 12 0 5 5 6 10 3 17 -11 11 7 -7 21 -16 12
-16 13 -2 14 9 0 19 -6 22 -14z m267 4 c0 -5 -6 -10 -14 -10 -8 0 -17 -10 -19
-22 -4 -20 -4 -20 -6 4 -1 23 9 35 32 37 4 1 7 -3 7 -9z m-53 -62 c-2 -13 -4
-3 -4 22 0 25 2 35 4 23 2 -13 2 -33 0 -45z m423 48 c0 -3 -4 -8 -10 -11 -5
-3 -10 -1 -10 4 0 6 5 11 10 11 6 0 10 -2 10 -4z m53 -6 c-13 -5 -23 -14 -23
-20 0 -6 -4 -9 -10 -5 -18 11 2 35 29 34 25 0 25 0 4 -9z m1207 1 c0 -5 -7
-11 -15 -15 -15 -5 -20 5 -8 17 9 10 23 9 23 -2z m107 -28 c-3 -10 -5 -4 -5
12 0 17 2 24 5 18 2 -7 2 -21 0 -30z m-2086 -1 c-7 -2 -18 1 -23 6 -8 8 -4 9
13 5 13 -4 18 -8 10 -11z m907 8 c12 0 22 -4 22 -10 0 -5 -11 -10 -24 -10 -37
0 -86 -12 -86 -20 0 -5 19 -6 43 -3 l42 6 -24 -22 c-13 -11 -29 -21 -34 -21
-6 0 -2 7 9 16 18 14 18 15 -6 8 -14 -4 -28 -11 -31 -15 -3 -5 -18 4 -33 20
l-27 28 23 8 c13 4 33 8 45 8 12 1 19 5 16 11 -4 5 4 7 18 3 13 -4 34 -7 47
-7z m1251 -55 c6 -3 8 -11 5 -18 -3 -8 2 -27 11 -43 8 -16 15 -38 15 -49 0
-11 7 -28 14 -38 8 -10 12 -27 9 -37 -6 -21 -41 -37 -52 -23 -12 13 -41 183
-40 233 l1 45 14 -32 c7 -17 18 -34 23 -38z m-1666 40 c-3 -9 -8 -14 -10 -11
-3 3 -2 9 2 15 9 16 15 13 8 -4z m2699 0 c0 -5 -5 -11 -11 -13 -6 -2 -11 4
-11 13 0 9 5 15 11 13 6 -2 11 -8 11 -13z m-2485 -1 c-3 -3 -12 -4 -19 -1 -8
3 -5 6 6 6 11 1 17 -2 13 -5z m1263 -20 c0 -8 -5 -12 -10 -9 -6 4 -8 11 -5 16
9 14 15 11 15 -7z m1198 -25 c9 -15 5 -21 -26 -41 -20 -12 -43 -27 -51 -32
-10 -6 -12 -5 -6 4 6 10 2 12 -14 7 -17 -4 -24 0 -32 21 -8 21 -12 23 -19 12
-6 -8 -10 -10 -10 -5 0 16 18 40 25 33 3 -3 25 0 48 7 54 16 72 15 85 -6z
m-1925 4 c3 -5 -1 -14 -9 -21 -12 -11 -14 -9 -14 8 0 20 14 27 23 13z m1671
-9 c9 -8 16 -23 16 -32 0 -13 -2 -14 -9 -4 -4 8 -12 12 -17 10 -5 -1 -10 7
-12 20 -4 26 1 28 22 6z m-1784 -4 c0 -5 -5 -10 -11 -10 -5 0 -7 5 -4 10 3 6
8 10 11 10 2 0 4 -4 4 -10z m1412 0 c2 -6 13 -12 26 -13 24 -1 26 -5 14 -24
-11 -17 -132 3 -132 22 0 22 85 35 92 15z m-247 -10 c-3 -5 -16 -10 -28 -9
-20 1 -20 2 3 9 14 4 26 8 28 9 2 1 0 -3 -3 -9z m-1356 -48 c2 -40 0 -44 -13
-32 -20 16 -22 77 -3 77 9 0 14 -16 16 -45z m1158 26 c-3 -8 -6 -5 -6 6 -1 11
2 17 5 13 3 -3 4 -12 1 -19z m891 4 c2 -7 -3 -12 -12 -12 -9 0 -16 7 -16 16 0
17 22 14 28 -4z m-2161 -7 c0 -8 -6 -15 -14 -15 -7 0 -13 7 -13 15 0 8 6 15
13 15 8 0 14 -7 14 -15z m1793 4 c0 -6 7 -8 16 -5 14 5 15 4 5 -8 -7 -8 -19
-12 -27 -9 -16 6 -19 33 -4 33 6 0 10 -5 10 -11z m64 -14 c-8 -20 6 -19 23 3
8 9 12 11 8 4 -4 -7 -1 -21 6 -30 11 -14 11 -15 0 -5 -7 6 -19 9 -26 6 -8 -2
-18 5 -25 16 -9 17 -8 21 4 21 10 0 13 -6 10 -15z m94 -30 c-3 -3 -9 2 -12 12
-6 14 -5 15 5 6 7 -7 10 -15 7 -18z m1172 5 c0 -5 -4 -10 -10 -10 -5 0 -10 5
-10 10 0 6 5 10 10 10 6 0 10 -4 10 -10z m-3375 -10 c3 -5 1 -10 -4 -10 -6 0
-11 5 -11 10 0 6 2 10 4 10 3 0 8 -4 11 -10z m2295 6 c0 -3 -4 -8 -10 -11 -5
-3 -10 -1 -10 4 0 6 5 11 10 11 6 0 10 -2 10 -4z m634 -12 c9 -3 16 -12 16
-20 0 -8 5 -14 11 -14 5 0 7 -5 4 -10 -8 -13 -31 3 -46 32 -11 20 -9 21 15 12z
m-784 -19 c0 -8 -4 -15 -10 -15 -5 0 -7 7 -4 15 4 8 8 15 10 15 2 0 4 -7 4
-15z m-613 -17 c-3 -8 -6 -5 -6 6 -1 11 2 17 5 13 3 -3 4 -12 1 -19z m-2087
-14 c0 -8 -4 -14 -10 -14 -5 0 -10 9 -10 21 0 11 5 17 10 14 6 -3 10 -13 10
-21z m571 3 c-10 -9 -11 -8 -5 6 3 10 9 15 12 12 3 -3 0 -11 -7 -18z m536 1
c-3 -8 -6 -5 -6 6 -1 11 2 17 5 13 3 -3 4 -12 1 -19z m-677 2 c0 -5 -4 -10
-10 -10 -5 0 -10 5 -10 10 0 6 5 10 10 10 6 0 10 -4 10 -10z m1792 -29 c-21
-22 -23 -21 -16 6 4 13 12 19 19 17 11 -4 10 -9 -3 -23z m1768 -10 c0 -5 -10
-9 -22 -9 -13 0 -35 -3 -50 -5 -26 -5 -40 7 -18 15 25 8 90 8 90 -1z m-3513
-17 c-3 -3 -12 -4 -19 -1 -8 3 -5 6 6 6 11 1 17 -2 13 -5z m178 -4 c-3 -5 -10
-10 -16 -10 -5 0 -9 5 -9 10 0 6 7 10 16 10 8 0 12 -4 9 -10z m335 0 c0 -5 -7
-10 -16 -10 -8 0 -12 5 -9 10 3 6 10 10 16 10 5 0 9 -4 9 -10z"/>
<path d="M163 1663 c9 -2 23 -2 30 0 6 3 -1 5 -18 5 -16 0 -22 -2 -12 -5z"/>
<path d="M354 1636 c3 -21 36 -36 36 -17 0 6 -4 11 -10 11 -5 0 -7 6 -4 13 3
8 -2 14 -10 14 -10 0 -14 -8 -12 -21z"/>
<path d="M440 1646 c0 -9 8 -16 20 -16 11 0 20 5 20 12 0 6 -3 8 -7 5 -3 -4
-12 -2 -20 4 -10 9 -13 8 -13 -5z"/>
<path d="M1125 1500 c-3 -5 3 -10 15 -10 12 0 18 5 15 10 -3 6 -10 10 -15 10
-5 0 -12 -4 -15 -10z"/>
<path d="M1390 1436 c0 -2 7 -6 15 -10 8 -3 15 -1 15 4 0 6 -7 10 -15 10 -8 0
-15 -2 -15 -4z"/>
<path d="M957 1192 c-7 -35 8 -50 23 -23 9 17 8 25 -3 36 -13 12 -16 11 -20
-13z"/>
<path d="M3095 960 c3 -5 8 -10 11 -10 2 0 4 5 4 10 0 6 -5 10 -11 10 -5 0 -7
-4 -4 -10z"/>
<path d="M3040 948 c0 -11 8 -18 20 -18 21 0 27 15 10 25 -5 3 -10 0 -10 -7 0
-9 -3 -9 -10 2 -8 13 -10 12 -10 -2z"/>
<path d="M3095 930 c-3 -5 -1 -10 4 -10 6 0 11 5 11 10 0 6 -2 10 -4 10 -3 0
-8 -4 -11 -10z"/>
<path d="M853 655 c-7 -8 -13 -28 -13 -44 0 -23 -4 -29 -15 -25 -9 4 -15 0
-15 -9 0 -18 37 -29 47 -14 5 8 14 108 9 107 -1 -1 -7 -7 -13 -15z"/>
<path d="M1255 250 c-3 -5 -1 -10 4 -10 6 0 11 5 11 10 0 6 -2 10 -4 10 -3 0
-8 -4 -11 -10z"/>
<path d="M2678 183 c7 -3 16 -2 19 1 4 3 -2 6 -13 5 -11 0 -14 -3 -6 -6z"/>
<path d="M520 2195 c0 -8 5 -15 10 -15 6 0 10 7 10 15 0 8 -4 15 -10 15 -5 0
-10 -7 -10 -15z"/>
<path d="M800 2194 c0 -8 5 -12 10 -9 6 4 8 11 5 16 -9 14 -15 11 -15 -7z"/>
<path d="M1 2184 c0 -11 3 -14 6 -6 3 7 2 16 -1 19 -3 4 -6 -2 -5 -13z"/>
<path d="M555 2170 c-8 -13 5 -13 25 0 13 8 13 10 -2 10 -9 0 -20 -4 -23 -10z"/>
<path d="M485 2160 c-3 -5 -15 -10 -26 -10 -11 0 -18 -4 -14 -9 5 -10 63 -12
78 -4 9 5 -11 33 -24 33 -4 0 -11 -4 -14 -10z"/>
<path d="M598 2143 c-27 -7 -21 -28 7 -29 14 -1 25 3 25 8 0 6 7 5 16 -3 13
-10 17 -10 24 2 8 11 13 12 30 2 26 -17 31 -16 24 2 -4 10 -20 14 -49 13 -24
0 -47 2 -51 4 -5 2 -17 3 -26 1z"/>
<path d="M3218 1843 c6 -2 18 -2 25 0 6 3 1 5 -13 5 -14 0 -19 -2 -12 -5z"/>
<path d="M2783 1823 c9 -2 23 -2 30 0 6 3 -1 5 -18 5 -16 0 -22 -2 -12 -5z"/>
<path d="M2088 1593 c6 -2 18 -2 25 0 6 3 1 5 -13 5 -14 0 -19 -2 -12 -5z"/>
<path d="M1681 1563 c-1 -27 -5 -33 -23 -33 -13 0 -29 -4 -37 -9 -11 -7 -10
-11 5 -20 11 -6 13 -11 7 -11 -25 0 -12 -20 13 -20 19 0 25 4 20 15 -5 14 11
21 37 16 5 -1 5 4 1 11 -4 7 -11 28 -15 48 l-7 35 -1 -32z"/>
<path d="M1811 1568 c5 -10 20 -18 32 -19 13 -1 7 -5 -18 -11 -22 -6 -44 -17
-48 -24 -4 -8 -18 -14 -30 -14 -13 0 -26 -9 -32 -22 -6 -13 -13 -21 -16 -18
-10 7 -49 -31 -49 -47 0 -17 15 -17 30 2 7 8 23 15 36 15 15 0 24 6 24 15 0 8
9 15 20 15 11 0 20 4 20 9 0 4 15 11 33 14 43 7 128 -3 121 -14 -3 -5 2 -6 11
-3 9 4 14 13 11 21 -3 8 -6 17 -6 20 0 3 -6 0 -14 -6 -19 -16 -71 10 -54 27 9
9 9 12 -1 12 -7 0 -9 5 -6 10 3 6 36 10 73 10 101 0 62 17 -50 22 -91 4 -96 4
-87 -14z"/>
<path d="M1736 1527 c3 -10 9 -15 12 -12 3 3 0 11 -7 18 -10 9 -11 8 -5 -6z"/>
<path d="M604 1469 c-3 -6 -1 -16 5 -22 8 -8 11 -5 11 11 0 24 -5 28 -16 11z"/>
<path d="M701 1466 c-8 -9 -11 -19 -7 -23 9 -9 29 13 24 27 -2 8 -8 7 -17 -4z"/>
<path d="M1860 1470 c0 -5 5 -10 11 -10 5 0 7 5 4 10 -3 6 -8 10 -11 10 -2 0
-4 -4 -4 -10z"/>
<path d="M1967 1465 c-12 -9 -14 -14 -6 -17 7 -2 9 -9 5 -16 -4 -7 -14 -8 -30
-2 -14 5 -27 5 -33 -1 -5 -5 -28 -10 -50 -11 -24 -1 -41 -6 -40 -12 1 -6 -6
-10 -15 -10 -10 1 -18 -2 -18 -6 0 -4 26 -7 58 -6 31 1 63 -2 70 -8 8 -6 17
-4 25 7 7 8 21 17 32 19 12 2 20 11 20 23 0 11 3 25 8 32 11 18 -6 23 -26 8z"/>
<path d="M656 1436 c3 -9 11 -16 16 -16 13 0 5 23 -10 28 -7 2 -10 -2 -6 -12z"/>
<path d="M700 1419 c0 -5 5 -7 10 -4 6 3 10 8 10 11 0 2 -4 4 -10 4 -5 0 -10
-5 -10 -11z"/>
<path d="M770 1400 c0 -5 5 -10 10 -10 6 0 10 5 10 10 0 6 -4 10 -10 10 -5 0
-10 -4 -10 -10z"/>
<path d="M695 1390 c3 -5 8 -10 11 -10 2 0 4 5 4 10 0 6 -5 10 -11 10 -5 0 -7
-4 -4 -10z"/>
<path d="M10 1380 c0 -5 5 -10 10 -10 6 0 10 5 10 10 0 6 -4 10 -10 10 -5 0
-10 -4 -10 -10z"/>
<path d="M553 1362 c-1 -22 0 -24 9 -8 6 10 6 22 2 26 -5 5 -10 -3 -11 -18z"/>
<path d="M719 1373 c-13 -16 -12 -17 4 -4 9 7 17 15 17 17 0 8 -8 3 -21 -13z"/>
<path d="M210 1375 c0 -8 38 -11 55 -5 15 6 10 8 -17 8 -21 0 -38 -1 -38 -3z"/>
<path d="M430 1370 c8 -5 20 -10 25 -10 6 0 3 5 -5 10 -8 5 -19 10 -25 10 -5
0 -3 -5 5 -10z"/>
<path d="M477 1366 c-4 -10 -1 -13 8 -9 8 3 12 9 9 14 -7 12 -11 11 -17 -5z"/>
<path d="M665 1370 c3 -5 8 -10 11 -10 2 0 4 5 4 10 0 6 -5 10 -11 10 -5 0 -7
-4 -4 -10z"/>
<path d="M765 1370 c3 -5 8 -10 11 -10 2 0 4 5 4 10 0 6 -5 10 -11 10 -5 0 -7
-4 -4 -10z"/>
<path d="M335 1360 l-20 -9 20 0 c11 0 29 4 40 9 l20 9 -20 0 c-11 0 -29 -4
-40 -9z"/>
<path d="M615 1360 c-3 -5 -1 -18 4 -27 9 -16 10 -14 11 10 0 28 -5 34 -15 17z"/>
<path d="M793 1355 c-3 -9 -3 -19 1 -22 3 -4 6 -1 6 6 0 7 4 9 10 6 6 -3 7 1
4 9 -8 20 -13 20 -21 1z"/>
<path d="M20 1350 c-8 -5 -10 -10 -5 -10 6 0 17 5 25 10 8 5 11 10 5 10 -5 0
-17 -5 -25 -10z"/>
<path d="M153 1339 c-1 -10 3 -22 9 -25 7 -5 9 -1 5 9 -4 10 0 17 11 19 14 3
13 5 -3 9 -15 5 -21 1 -22 -12z"/>
<path d="M650 1346 c0 -9 5 -16 10 -16 6 0 10 4 10 9 0 6 -4 13 -10 16 -5 3
-10 -1 -10 -9z"/>
<path d="M505 1340 c3 -5 8 -10 11 -10 2 0 4 5 4 10 0 6 -5 10 -11 10 -5 0 -7
-4 -4 -10z"/>
<path d="M757 1339 c7 -7 15 -10 18 -7 3 3 -2 9 -12 12 -14 6 -15 5 -6 -5z"/>
<path d="M72 1324 c-7 -8 -8 -14 -3 -14 10 0 25 19 20 25 -2 1 -10 -3 -17 -11z"/>
<path d="M110 1320 c0 -6 7 -10 15 -10 8 0 15 2 15 4 0 2 -7 6 -15 10 -8 3
-15 1 -15 -4z"/>
<path d="M185 1321 c-3 -5 -1 -12 5 -16 5 -3 10 1 10 9 0 18 -6 21 -15 7z"/>
<path d="M570 1320 c11 -7 6 -10 -20 -10 -35 0 -69 -14 -59 -24 2 -3 22 -1 44
4 25 6 41 6 43 0 2 -6 8 -10 14 -10 6 0 6 6 -2 15 -10 12 -9 15 6 16 18 0 18
1 -1 9 -27 12 -43 12 -25 0z"/>
<path d="M655 1320 c-18 -8 -17 -9 8 -9 15 -1 27 4 27 9 0 12 -8 12 -35 0z"/>
<path d="M210 1300 c0 -5 7 -7 15 -4 8 4 15 8 15 10 0 2 -7 4 -15 4 -8 0 -15
-4 -15 -10z"/>
<path d="M320 1289 c0 -5 5 -7 10 -4 6 3 10 8 10 11 0 2 -4 4 -10 4 -5 0 -10
-5 -10 -11z"/>
<path d="M635 1290 l-20 -9 20 0 c11 0 29 4 40 9 l20 9 -20 0 c-11 0 -29 -4
-40 -9z"/>
<path d="M435 1280 c3 -5 8 -10 11 -10 2 0 4 5 4 10 0 6 -5 10 -11 10 -5 0 -7
-4 -4 -10z"/>
<path d="M154 1267 c-4 -7 -4 -9 1 -5 4 4 14 3 22 -3 8 -7 13 -8 13 -1 0 15
-28 23 -36 9z"/>
<path d="M688 1273 c6 -2 18 -2 25 0 6 3 1 5 -13 5 -14 0 -19 -2 -12 -5z"/>
<path d="M0 1261 c0 -5 6 -11 13 -14 9 -3 9 -8 -2 -21 -18 -22 -10 -29 22 -17
15 6 29 7 31 2 7 -11 -4 -21 -21 -21 -18 0 -44 -25 -36 -34 10 -10 73 -7 73 4
0 6 7 10 15 10 8 0 15 -4 15 -10 0 -5 -4 -10 -10 -10 -5 0 -10 -8 -10 -17 0
-15 3 -14 18 5 10 13 25 23 33 22 8 -1 30 -2 50 -1 32 1 37 5 42 28 l5 28 -18
-23 c-19 -23 -57 -27 -115 -12 -22 6 -14 8 32 6 46 -2 64 1 68 11 9 26 5 39
-8 23 -15 -20 -61 -24 -54 -6 4 10 -9 15 -45 19 -28 4 -58 13 -68 22 -19 17
-30 19 -30 6z m130 -52 c0 -5 -11 -9 -25 -9 -33 0 -33 15 0 16 14 1 25 -2 25
-7z"/>
<path d="M75 1260 c-7 -11 22 -26 32 -16 4 3 -1 6 -11 6 -9 0 -14 5 -11 10 3
6 4 10 1 10 -3 0 -8 -5 -11 -10z"/>
<path d="M120 1250 c0 -5 5 -10 11 -10 5 0 7 5 4 10 -3 6 -8 10 -11 10 -2 0
-4 -4 -4 -10z"/>
<path d="M505 1250 c3 -5 10 -10 16 -10 5 0 9 5 9 10 0 6 -7 10 -16 10 -8 0
-12 -4 -9 -10z"/>
<path d="M688 1243 c7 -3 16 -2 19 1 4 3 -2 6 -13 5 -11 0 -14 -3 -6 -6z"/>
<path d="M165 1230 c-3 -5 -1 -10 4 -10 6 0 11 5 11 10 0 6 -2 10 -4 10 -3 0
-8 -4 -11 -10z"/>
<path d="M324 1205 c-4 -10 -20 -15 -45 -15 -31 0 -39 -4 -39 -17 0 -15 2 -15
9 -4 5 8 16 11 26 7 10 -3 26 -4 36 -1 22 7 46 45 29 45 -6 0 -13 -7 -16 -15z"/>
<path d="M350 1172 c0 -15 22 -30 36 -25 8 3 14 0 14 -7 0 -6 5 -8 11 -4 8 4
7 9 -2 16 -10 7 -8 8 9 5 12 -3 22 -2 22 3 0 4 -11 10 -25 12 -13 3 -22 1 -19
-3 3 -5 -4 -9 -16 -9 -12 0 -18 5 -15 10 3 6 1 10 -4 10 -6 0 -11 -4 -11 -8z"/>
<path d="M557 1156 c-17 -13 -17 -14 0 -20 10 -4 14 -4 10 0 -4 4 -2 13 4 21
14 17 9 16 -14 -1z"/>
<path d="M5 1132 c-11 -11 -4 -32 10 -32 8 0 15 5 15 11 0 5 9 9 20 7 10 -2
19 1 20 7 0 10 -55 17 -65 7z"/>
<path d="M326 1131 c-3 -5 8 -11 24 -13 24 -4 27 -2 19 9 -13 15 -35 17 -43 4z"/>
<path d="M445 1130 c-4 -6 16 -10 51 -10 32 0 55 2 53 4 -11 9 -99 14 -104 6z"/>
<path d="M1903 1095 c0 -22 2 -30 4 -17 2 12 2 30 0 40 -3 9 -5 -1 -4 -23z"/>
<path d="M2393 1095 c0 -22 2 -30 4 -17 2 12 2 30 0 40 -3 9 -5 -1 -4 -23z"/>
<path d="M160 1089 c0 -17 4 -28 10 -24 6 3 10 11 10 17 0 6 8 17 18 24 15 12
14 13 -10 14 -25 0 -28 -4 -28 -31z"/>
<path d="M220 1110 c0 -5 9 -10 21 -10 11 0 17 5 14 10 -3 6 -13 10 -21 10 -8
0 -14 -4 -14 -10z"/>
<path d="M2050 1058 c0 -34 3 -58 7 -55 3 4 12 2 20 -5 18 -14 24 -7 16 20 -3
12 -10 19 -15 16 -5 -3 -9 0 -7 7 4 34 -2 79 -11 79 -6 0 -10 -27 -10 -62z"/>
<path d="M98 1103 c-10 -2 -18 -9 -18 -14 0 -12 10 -11 40 6 24 14 14 18 -22
8z"/>
<path d="M2086 1091 c-3 -5 4 -20 15 -35 11 -14 17 -26 12 -26 -4 0 1 -6 11
-12 19 -10 19 -11 1 -24 -14 -11 -16 -16 -6 -28 9 -11 9 -15 -1 -19 -7 -3 -3
-6 10 -6 12 -1 22 -5 22 -11 0 -15 27 -12 44 5 16 17 30 20 21 6 -9 -16 69 0
82 16 6 8 13 13 16 11 3 -2 9 0 13 5 4 4 2 7 -4 7 -18 0 -14 21 5 36 10 7 15
16 11 20 -4 4 -14 1 -23 -6 -9 -7 -15 -8 -15 -2 0 6 6 12 13 15 24 9 -9 28
-36 22 -36 -9 -57 -34 -23 -28 32 6 44 -15 14 -25 -29 -10 -75 -8 -111 7 -22
8 -27 15 -22 31 4 11 2 20 -4 20 -6 0 -8 7 -5 15 4 10 0 15 -14 15 -12 0 -23
-4 -26 -9z m211 -103 c-2 -7 -11 -12 -20 -10 -8 1 -18 -2 -22 -8 -8 -13 -65
-13 -65 0 0 6 10 10 23 10 12 0 29 5 37 10 22 14 52 12 47 -2z m-130 -13 c8
-22 -6 -33 -17 -15 -13 20 -12 30 0 30 6 0 13 -7 17 -15z"/>
<path d="M2250 1079 c0 -5 5 -7 10 -4 6 3 10 8 10 11 0 2 -4 4 -10 4 -5 0 -10
-5 -10 -11z"/>
<path d="M135 1070 c3 -5 8 -10 11 -10 2 0 4 5 4 10 0 6 -5 10 -11 10 -5 0 -7
-4 -4 -10z"/>
<path d="M20 1055 c-14 -8 -19 -14 -12 -15 7 0 10 -4 7 -10 -3 -5 -1 -10 4
-10 6 0 14 0 18 0 4 0 8 11 10 25 4 29 5 29 -27 10z"/>
<path d="M1776 1063 c-3 -3 -6 -16 -5 -27 0 -15 2 -17 6 -6 3 8 10 18 16 21 6
4 6 9 -1 12 -5 4 -12 4 -16 0z"/>
<path d="M1870 1036 c0 -2 7 -7 16 -10 8 -3 12 -2 9 4 -6 10 -25 14 -25 6z"/>
<path d="M170 1019 c0 -5 5 -7 10 -4 6 3 10 8 10 11 0 2 -4 4 -10 4 -5 0 -10
-5 -10 -11z"/>
<path d="M2368 1023 c7 -3 16 -2 19 1 4 3 -2 6 -13 5 -11 0 -14 -3 -6 -6z"/>
<path d="M231 1004 c0 -11 3 -14 6 -6 3 7 2 16 -1 19 -3 4 -6 -2 -5 -13z"/>
<path d="M1495 1002 c-3 -3 -5 -22 -5 -43 0 -34 3 -37 22 -34 12 3 34 18 50
35 33 37 35 45 8 30 -16 -8 -18 -8 -14 4 4 11 -2 14 -25 14 -17 -1 -33 -3 -36
-6z"/>
<path d="M2670 980 c0 -7 -16 -9 -40 -6 -38 5 -40 3 -34 -18 4 -17 -1 -25 -21
-34 -14 -7 -39 -12 -55 -12 -17 0 -30 -4 -30 -10 0 -5 5 -10 10 -10 7 0 7 -6
0 -19 -5 -11 -10 -22 -10 -25 0 -10 49 -6 55 4 4 6 11 8 16 5 5 -4 9 3 9 14 0
12 5 21 10 21 6 0 9 5 8 12 -2 7 4 13 12 13 32 2 70 18 64 26 -3 5 2 9 10 9 9
0 16 9 16 20 0 11 -4 20 -10 20 -5 0 -10 -5 -10 -10z m-30 -40 c0 -5 -4 -10
-10 -10 -5 0 -10 5 -10 10 0 6 5 10 10 10 6 0 10 -4 10 -10z m-94 -67 c-10
-10 -19 5 -10 18 6 11 8 11 12 0 2 -7 1 -15 -2 -18z"/>
<path d="M2357 950 c-3 -11 -1 -20 4 -20 5 0 9 9 9 20 0 11 -2 20 -4 20 -2 0
-6 -9 -9 -20z"/>
<path d="M680 941 c-12 -24 -13 -31 -1 -31 5 0 11 11 13 25 6 30 2 32 -12 6z"/>
<path d="M1020 950 c0 -5 5 -10 11 -10 5 0 7 5 4 10 -3 6 -8 10 -11 10 -2 0
-4 -4 -4 -10z"/>
<path d="M1462 940 c0 -14 2 -19 5 -12 2 6 2 18 0 25 -3 6 -5 1 -5 -13z"/>
<path d="M2390 950 c0 -6 7 -10 15 -10 8 0 15 2 15 4 0 2 -7 6 -15 10 -8 3
-15 1 -15 -4z"/>
<path d="M295 921 c-7 -35 -1 -51 21 -51 11 0 14 9 12 37 -4 46 -24 54 -33 14z"/>
<path d="M141 924 c0 -11 3 -14 6 -6 3 7 2 16 -1 19 -3 4 -6 -2 -5 -13z"/>
<path d="M450 906 c0 -25 -5 -36 -17 -39 -10 -2 -3 -4 14 -3 31 1 33 3 33 39
0 26 -4 37 -15 37 -10 0 -15 -10 -15 -34z"/>
<path d="M2302 924 c-7 -8 -8 -14 -2 -14 5 0 10 -5 10 -10 0 -7 -7 -7 -22 1
-18 10 -20 9 -15 -5 3 -8 -1 -22 -9 -31 -15 -14 -18 -14 -34 5 -9 11 -21 20
-25 20 -14 0 -45 -43 -46 -64 -1 -15 -3 -13 -9 9 l-8 30 -1 -32 c-1 -42 -21
-54 -21 -13 0 17 -7 38 -15 46 -13 14 -15 13 -16 -8 -1 -13 -1 -27 0 -32 1 -4
-3 -14 -10 -22 -11 -14 -5 -34 12 -34 6 0 7 5 4 10 -3 6 -2 10 4 10 5 0 13 -5
16 -10 5 -8 11 -8 19 0 7 5 27 12 44 14 18 2 37 8 44 14 7 5 28 8 46 6 21 -2
31 0 27 7 -4 5 -16 7 -26 4 -13 -5 -6 7 19 32 30 29 38 43 33 59 -5 19 -8 20
-19 8z"/>
<path d="M2030 914 l-25 -15 25 7 c14 3 29 10 35 15 15 14 -7 10 -35 -7z"/>
<path d="M746 876 c-5 -21 -2 -33 9 -39 9 -4 13 -12 10 -18 -4 -5 1 -9 9 -9
10 0 16 9 16 25 0 16 6 25 15 25 8 0 15 5 15 10 0 6 -4 10 -10 10 -5 0 -7 6
-4 13 3 10 -4 14 -25 14 -25 0 -30 -5 -35 -31z"/>
<path d="M936 901 c-4 -5 3 -7 14 -4 23 6 26 13 6 13 -8 0 -17 -4 -20 -9z"/>
<path d="M702 875 c0 -16 2 -22 5 -12 2 9 2 23 0 30 -3 6 -5 -1 -5 -18z"/>
<path d="M620 870 c0 -22 1 -23 24 -14 13 5 14 9 5 20 -16 20 -29 17 -29 -6z"/>
<path d="M1812 823 c3 -57 2 -60 -19 -57 -18 2 -23 -3 -23 -21 0 -32 24 -50
43 -31 18 18 23 151 6 161 -8 5 -10 -10 -7 -52z"/>
<path d="M1400 839 c0 -11 4 -18 10 -14 5 3 7 12 3 20 -7 21 -13 19 -13 -6z"/>
<path d="M1707 837 c-39 -33 -34 -44 22 -43 27 1 47 4 44 9 -2 4 -13 7 -24 7
-21 0 -25 20 -7 38 22 22 -8 13 -35 -11z"/>
<path d="M1870 828 c0 -18 -3 -43 -6 -55 -4 -13 -2 -23 3 -23 6 0 11 25 12 55
1 30 -1 55 -4 55 -3 0 -5 -15 -5 -32z"/>
<path d="M2016 845 c4 -8 8 -15 10 -15 2 0 4 7 4 15 0 8 -4 15 -10 15 -5 0 -7
-7 -4 -15z"/>
<path d="M2330 850 c-8 -5 -19 -6 -25 -3 -5 3 -1 -3 10 -14 19 -19 55 -27 55
-13 0 19 -26 39 -40 30z"/>
<path d="M640 840 c0 -5 7 -10 16 -10 8 0 12 5 9 10 -3 6 -10 10 -16 10 -5 0
-9 -4 -9 -10z"/>
<path d="M2678 843 c6 -2 18 -2 25 0 6 3 1 5 -13 5 -14 0 -19 -2 -12 -5z"/>
<path d="M705 830 c-3 -5 1 -10 10 -10 9 0 13 5 10 10 -3 6 -8 10 -10 10 -2 0
-7 -4 -10 -10z"/>
<path d="M1317 820 c-17 -20 -16 -21 10 -31 15 -6 31 -15 35 -22 11 -19 21 19
12 51 -6 21 -8 23 -11 9 -4 -17 -6 -17 -16 -2 -11 14 -14 13 -30 -5z"/>
<path d="M1488 833 c7 -3 16 -2 19 1 4 3 -2 6 -13 5 -11 0 -14 -3 -6 -6z"/>
<path d="M113 788 c5 -60 28 -63 25 -4 -2 29 -8 46 -16 46 -8 0 -11 -13 -9
-42z"/>
<path d="M173 823 c9 -2 23 -2 30 0 6 3 -1 5 -18 5 -16 0 -22 -2 -12 -5z"/>
<path d="M1050 811 c0 -12 6 -21 15 -21 8 0 15 4 15 9 0 5 -7 14 -15 21 -13
10 -15 9 -15 -9z"/>
<path d="M1182 810 c0 -14 2 -19 5 -12 2 6 2 18 0 25 -3 6 -5 1 -5 -13z"/>
<path d="M1601 814 c-1 -12 -8 -27 -16 -34 -18 -15 -21 -64 -2 -57 6 2 11 11
9 18 -2 7 4 19 13 25 14 10 15 18 7 41 -9 23 -11 25 -11 7z"/>
<path d="M656 805 c-3 -8 -1 -15 3 -15 5 0 11 7 15 15 3 8 1 15 -3 15 -5 0
-11 -7 -15 -15z"/>
<path d="M1110 804 c0 -8 4 -13 9 -9 5 3 12 -4 16 -15 3 -11 10 -20 15 -20 5
0 1 13 -8 30 -19 33 -32 39 -32 14z"/>
<path d="M1275 810 c-3 -5 -1 -10 4 -10 6 0 11 5 11 10 0 6 -2 10 -4 10 -3 0
-8 -4 -11 -10z"/>
<path d="M1528 813 c7 -3 16 -2 19 1 4 3 -2 6 -13 5 -11 0 -14 -3 -6 -6z"/>
<path d="M3740 796 c0 -2 9 -6 20 -9 11 -3 18 -1 14 4 -5 9 -34 13 -34 5z"/>
<path d="M3873 793 c9 -2 23 -2 30 0 6 3 -1 5 -18 5 -16 0 -22 -2 -12 -5z"/>
<path d="M641 766 c-10 -12 -8 -13 8 -9 12 3 21 9 21 14 0 14 -16 11 -29 -5z"/>
<path d="M966 765 c-3 -8 -1 -15 3 -15 5 0 11 7 15 15 3 8 1 15 -3 15 -5 0
-11 -7 -15 -15z"/>
<path d="M1425 770 c-3 -5 -1 -10 4 -10 6 0 11 5 11 10 0 6 -2 10 -4 10 -3 0
-8 -4 -11 -10z"/>
<path d="M1470 750 c0 -32 -14 -40 -24 -15 -3 8 -16 15 -29 15 -19 0 -24 -5
-24 -22 0 -20 5 -23 41 -24 22 0 47 5 54 12 17 18 16 64 -3 64 -10 0 -15 -10
-15 -30z"/>
<path d="M1680 760 c0 -5 5 -10 10 -10 6 0 10 5 10 10 0 6 -4 10 -10 10 -5 0
-10 -4 -10 -10z"/>
<path d="M4173 753 c-34 -31 -35 -50 -2 -55 28 -4 29 -3 29 34 0 21 -2 38 -3
38 -2 0 -13 -8 -24 -17z"/>
<path d="M1620 751 c0 -5 -3 -16 -6 -25 -4 -11 0 -16 15 -16 15 0 19 -4 14
-17 -4 -11 -3 -14 5 -9 7 4 12 21 12 37 0 18 -4 28 -10 24 -5 -3 -10 -1 -10 4
0 6 -4 11 -10 11 -5 0 -10 -4 -10 -9z"/>
<path d="M3841 749 c-1 -9 6 -20 15 -23 23 -9 34 -7 34 4 0 6 -9 10 -19 10
-11 0 -22 6 -24 13 -4 7 -6 6 -6 -4z"/>
<path d="M1000 740 c0 -5 4 -10 9 -10 6 0 13 5 16 10 3 6 -1 10 -9 10 -9 0
-16 -4 -16 -10z"/>
<path d="M1836 713 c-6 -14 -5 -15 5 -6 7 7 10 15 7 18 -3 3 -9 -2 -12 -12z"/>
<path d="M1210 711 c0 -11 26 -22 34 -14 12 12 5 23 -14 23 -11 0 -20 -4 -20
-9z"/>
<path d="M1740 686 c0 -9 5 -16 10 -16 6 0 10 4 10 9 0 6 -4 13 -10 16 -5 3
-10 -1 -10 -9z"/>
<path d="M1411 683 c1 -16 18 -47 18 -35 1 6 6 12 12 12 5 0 7 -4 4 -10 -4 -6
6 -10 22 -9 16 0 22 3 13 6 -8 3 -17 9 -20 12 -10 12 -50 31 -49 24z"/>
<path d="M1700 670 c0 -5 5 -10 10 -10 6 0 10 5 10 10 0 6 -4 10 -10 10 -5 0
-10 -4 -10 -10z"/>
<path d="M3986 672 c-12 -11 -6 -20 12 -17 9 2 21 4 26 4 13 1 -2 14 -19 17
-7 1 -16 -1 -19 -4z"/>
<path d="M621 644 c0 -11 3 -14 6 -6 3 7 2 16 -1 19 -3 4 -6 -2 -5 -13z"/>
<path d="M1483 616 c-10 -11 -9 -15 3 -20 9 -3 17 -6 18 -6 1 0 2 9 2 20 0 23
-6 25 -23 6z"/>
<path d="M1211 564 c0 -11 3 -14 6 -6 3 7 2 16 -1 19 -3 4 -6 -2 -5 -13z"/>
<path d="M3320 544 c0 -17 45 -33 61 -23 10 6 7 9 -11 9 -15 0 -31 5 -38 12
-7 7 -12 8 -12 2z"/>
<path d="M3313 445 c0 -8 6 -15 13 -15 8 0 11 6 8 15 -4 8 -9 15 -13 15 -4 0
-8 -7 -8 -15z"/>
<path d="M3565 440 c-3 -5 -1 -10 4 -10 6 0 11 5 11 10 0 6 -2 10 -4 10 -3 0
-8 -4 -11 -10z"/>
<path d="M3490 386 c0 -28 23 -37 58 -22 28 12 29 26 1 26 -13 0 -18 -5 -14
-12 3 -7 -2 -3 -11 10 -21 29 -34 28 -34 -2z"/>
<path d="M3595 390 c-3 -5 -1 -10 4 -10 6 0 11 5 11 10 0 6 -2 10 -4 10 -3 0
-8 -4 -11 -10z"/>
<path d="M3768 346 l-28 -12 29 -11 c25 -9 29 -8 24 5 -4 10 -2 13 5 8 7 -4
12 -16 12 -26 0 -10 6 -21 13 -23 17 -8 -11 -27 -40 -27 -15 0 -23 -6 -23 -17
0 -15 -2 -16 -10 -3 -8 12 -10 11 -7 -5 1 -11 6 -25 10 -32 4 -7 0 -17 -10
-23 -12 -7 -14 -13 -6 -16 6 -3 21 -14 33 -24 13 -11 27 -17 31 -14 5 3 9 2 9
-3 0 -4 12 -9 28 -9 21 -1 16 3 -25 22 -29 13 -53 29 -53 35 0 6 7 9 15 5 8
-3 15 0 15 7 0 9 2 9 8 0 11 -18 60 -34 89 -28 34 6 40 13 17 20 -10 4 -27 11
-36 16 -10 5 -24 6 -33 3 -11 -5 -14 -2 -8 12 5 13 3 15 -8 9 -11 -6 -11 -5
-2 5 10 10 18 11 43 0 17 -7 34 -10 37 -6 8 8 -22 61 -34 61 -11 -1 -43 27
-43 37 0 16 19 7 52 -22 37 -34 44 -36 51 -16 4 10 -5 18 -24 25 -17 6 -44 22
-61 36 -33 28 -33 28 -70 11z"/>
<path d="M3497 319 c7 -7 15 -10 18 -7 3 3 -2 9 -12 12 -14 6 -15 5 -6 -5z"/>
<path d="M752 234 c-7 -8 -8 -14 -3 -14 10 0 25 19 20 25 -2 1 -10 -3 -17 -11z"/>
<path d="M870 114 c0 -26 2 -45 5 -43 9 9 12 80 4 85 -5 3 -9 -16 -9 -42z"/>
<path d="M3975 141 c-4 -3 -27 -6 -51 -7 -24 -1 -47 -4 -51 -8 -3 -3 -2 -6 3
-6 6 0 11 -17 12 -37 2 -28 0 -34 -8 -23 -7 11 -10 6 -10 -22 l0 -38 65 0 c51
0 65 3 65 15 0 8 -6 15 -14 15 -21 0 -29 32 -11 43 14 8 13 11 -10 23 -32 17
-38 17 -30 4 3 -5 0 -19 -8 -30 -14 -20 -15 -20 -20 7 -7 37 -2 43 36 44 18 1
43 4 57 8 24 7 25 7 3 13 -12 3 -25 3 -28 -1z"/>
<path d="M2631 84 c0 -11 3 -14 6 -6 3 7 2 16 -1 19 -3 4 -6 -2 -5 -13z"/>
<path d="M3730 74 c0 -8 5 -12 10 -9 6 3 10 10 10 16 0 5 -4 9 -10 9 -5 0 -10
-7 -10 -16z"/>
<path d="M977 49 c4 -13 8 -18 11 -10 2 7 -1 18 -6 23 -8 8 -9 4 -5 -13z"/>
<path d="M888 53 c7 -3 16 -2 19 1 4 3 -2 6 -13 5 -11 0 -14 -3 -6 -6z"/>
<path d="M2860 50 c0 -5 5 -10 10 -10 6 0 10 5 10 10 0 6 -4 10 -10 10 -5 0
-10 -4 -10 -10z"/>
<path d="M2948 25 c2 -14 6 -25 8 -25 2 0 4 11 4 25 0 14 -4 25 -9 25 -4 0 -6
-11 -3 -25z"/>
<path d="M2980 35 c0 -8 5 -15 10 -15 6 0 10 7 10 15 0 8 -4 15 -10 15 -5 0
-10 -7 -10 -15z"/>
<path d="M1041 14 c0 -11 3 -14 6 -6 3 7 2 16 -1 19 -3 4 -6 -2 -5 -13z"/>
</g>
</svg>
